<svg width="121" height="120" viewBox="0 0 121 120" fill="none" xmlns="http://www.w3.org/2000/svg">
<path d="M80.278 51.6189C80.278 62.5442 71.4302 71.4099 60.5049 71.4099C49.5794 71.4099 40.7139 62.5442 40.7139 51.6189C40.7139 40.6935 49.5794 31.8457 60.5049 31.8457C71.4302 31.8457 80.278 40.6935 80.278 51.6189Z" fill="#B0B6D3"/>
<path d="M73.9734 87.8848V106.78C73.9734 109.395 71.86 111.509 69.2451 111.509H51.4958C48.881 111.509 46.7676 109.395 46.7676 106.78V87.8848H73.9734Z" fill="white"/>
<path d="M46.7676 95.9434H73.9735V103.466H46.7676V95.9434Z" fill="#B0B6D3"/>
<path d="M67.2979 111.506L66.3307 116.378H54.4203L53.4531 111.506H67.2979Z" fill="#B0B6D3"/>
<path d="M69.21 57.4382V87.886H51.7832V57.4382C51.9372 57.214 60.3125 45.0366 60.4877 44.7933C61.3865 46.0777 57.2628 40.1145 69.21 57.4382Z" fill="white"/>
<path d="M64.3698 50.4316C63.2645 51.1895 61.9382 51.6316 60.5013 51.6316C59.0645 51.6316 57.7224 51.1737 56.6172 50.4158C56.7426 50.2336 60.728 44.4424 60.4855 44.7947C60.611 44.9768 64.6258 50.8031 64.3698 50.4316Z" fill="#B0B6D3"/>
<path d="M114.841 39.1923C114.663 38.7323 114.142 38.5006 113.683 38.6798C113.222 38.8574 112.993 39.376 113.169 39.8377C115.662 46.2909 116.924 53.0939 116.924 60.0587C116.924 72.7831 112.758 84.8115 104.873 94.8432C104.569 95.2324 104.635 95.7956 105.026 96.1008C105.407 96.4041 105.975 96.3422 106.283 95.9504C114.416 85.6003 118.715 73.1889 118.715 60.0587C118.715 52.8726 117.412 45.8519 114.841 39.1923Z" fill="#001571"/>
<path d="M108.419 30.3239C108.683 30.7473 109.237 30.869 109.652 30.6099C110.071 30.3475 110.199 29.7957 109.937 29.3759C108.788 27.5341 107.523 25.7379 106.176 24.0369C105.868 23.6477 105.305 23.5848 104.919 23.8908C104.53 24.1978 104.466 24.761 104.773 25.1493C106.078 26.7969 107.304 28.5381 108.419 30.3239Z" fill="#001571"/>
<path d="M41.0613 113.019C29.9023 108.906 20.1119 101.157 13.4943 91.1998C13.2188 90.7853 12.6609 90.6751 12.2524 90.9497C11.8405 91.2234 11.7286 91.7796 12.0023 92.1915C18.8289 102.463 28.9289 110.456 40.4422 114.699C40.9041 114.869 41.4199 114.635 41.5922 114.169C41.7627 113.704 41.5257 113.19 41.0613 113.019Z" fill="#001571"/>
<path d="M39.0659 7.88906C42.829 6.33764 46.7723 5.19549 50.7873 4.49587C51.2744 4.41105 51.6006 3.94667 51.5158 3.45956C51.4301 2.97244 50.9744 2.65061 50.4795 2.73107C46.3368 3.45343 42.2667 4.63144 38.3838 6.2327C37.9264 6.4216 37.7086 6.94457 37.8967 7.40195C38.0856 7.85976 38.6087 8.07628 39.0659 7.88906Z" fill="#001571"/>
<path d="M32.2379 11.262C32.6655 11.0137 32.8107 10.4653 32.5614 10.0377C32.3131 9.61003 31.763 9.46399 31.3371 9.71411C0.116399 27.86 2.35895 60.4408 2.30957 60.6207C2.31394 61.1122 2.71447 61.5075 3.20509 61.5075H3.21383C3.70794 61.5031 4.10498 61.0982 4.10061 60.6032C4.15791 60.3945 3.67171 27.8642 32.2379 11.262Z" fill="#001571"/>
<path d="M111.551 60.0584C111.551 31.9125 88.6527 9.01367 60.5067 9.01367C32.3607 9.01367 9.46191 31.9125 9.46191 60.0584C9.46191 83.2989 25.0905 102.924 46.3777 109.072C47.2576 111.031 49.2182 112.405 51.5016 112.405H52.7197L53.5436 116.554C53.6267 116.974 53.994 117.276 54.4217 117.276H66.3311C66.7578 117.276 67.1269 116.974 67.2091 116.554L68.033 112.405H69.252C71.4928 112.405 73.4159 111.078 74.3189 109.177C95.7708 103.135 111.551 83.4159 111.551 60.0584ZM73.0842 102.571H47.6694V96.8404H73.0842V102.571ZM70.1213 86.9897C70.1211 84.8063 70.1224 96.2239 70.1178 57.427C70.1178 57.1151 61.0881 44.0833 61.3244 44.4262C61.3148 44.4043 61.3051 44.3833 61.2938 44.3632C60.8938 43.6016 59.8289 43.8179 59.626 44.5617C59.3554 44.91 50.8956 56.9843 50.8956 57.427C50.8913 93.6484 50.8922 85.6489 50.8921 86.9897H49.0109C47.8225 80.0275 44.7342 73.352 39.9237 67.7412C24.8494 50.163 37.4722 22.9931 60.4988 22.9931C83.6409 22.9931 95.9359 50.1257 81.2402 67.5637C76.3677 73.3419 73.2349 80.0746 72.0209 86.9897L70.1213 86.9897ZM63.0901 50.1456C61.4845 50.9222 59.5327 50.9284 57.9062 50.1308C58.5806 49.1507 59.7305 47.4797 60.491 46.3737L63.0901 50.1456ZM56.8908 51.6052C58.0112 52.2014 59.2415 52.5278 60.5067 52.5278C61.7738 52.5278 62.997 52.2035 64.1068 51.6167L67.0761 55.9018C67.0332 55.8932 66.9937 55.8757 66.9503 55.8686C65.5236 55.6395 64.2282 56.2119 63.4087 57.1938C62.7108 56.3597 61.6762 55.817 60.5067 55.817C59.3291 55.817 58.288 56.3666 57.5899 57.2101C57.0233 56.5107 56.2303 56.0161 55.326 55.8686C54.8352 55.7897 54.366 55.8247 53.9188 55.918L56.8908 51.6052ZM62.5164 86.9897H58.4953V59.7751V59.6194C58.4953 58.5105 59.3978 57.608 60.5067 57.608C61.6147 57.608 62.5164 58.5105 62.5164 59.6194V86.9897ZM52.6866 59.5883C52.7057 58.3809 53.8012 57.4297 55.0374 57.6369C55.988 57.7917 56.7042 58.7108 56.7042 59.7751V86.9897H52.6831C52.6835 84.1875 52.6818 97.1393 52.6866 59.5883ZM64.3074 86.9897V59.6194C64.3074 58.3977 65.3848 57.4296 66.6634 57.6369C67.6066 57.7906 68.317 58.6991 68.3268 59.7541C68.3316 97.0779 68.3299 84.2049 68.3303 86.9897H64.3074ZM47.6694 88.7808C50.3383 88.7808 73.3385 88.7806 73.0842 88.7808V95.0494H47.6694V88.7808ZM65.5965 115.485H55.1572L54.545 112.405H66.2069L65.5965 115.485ZM69.252 110.613C68.875 110.613 51.0752 110.613 51.5016 110.613C49.3887 110.613 47.6694 108.894 47.6694 106.78V104.362H73.0842V106.78C73.0842 108.894 71.3649 110.613 69.252 110.613ZM74.8389 107.14C74.8467 107.019 74.8753 106.903 74.8753 106.78C74.8753 100.538 74.8753 94.8516 74.8753 87.8853C74.8753 87.3903 74.4747 86.9897 73.9797 86.9897H73.8353C75.0348 80.4936 78.0138 74.1679 82.6096 68.7181C98.2729 50.1285 85.1781 21.2021 60.4988 21.2021C35.9213 21.2021 22.5095 50.1876 38.5646 68.9079C43.093 74.1896 46.0248 80.4542 47.1975 86.9897H46.7739C46.2789 86.9897 45.8784 87.3902 45.8784 87.8852C45.8784 88.0721 45.8784 107.097 45.8784 106.78C45.8784 106.872 45.9011 106.958 45.9055 107.048C25.8639 100.806 11.253 82.1278 11.253 60.0584C11.253 32.8998 33.348 10.8047 60.5067 10.8047C87.6645 10.8047 109.76 32.8998 109.76 60.0584C109.76 82.2276 95.0197 100.983 74.8389 107.14Z" fill="#001571"/>
<path d="M60.4981 12.9512C60.0031 12.9512 59.6025 13.3517 59.6025 13.8467V17.1795C59.6025 17.6745 60.0031 18.0751 60.4981 18.0751C60.9931 18.0751 61.3936 17.6745 61.3936 17.1795V13.8467C61.3936 13.3517 60.9931 12.9512 60.4981 12.9512Z" fill="#001571"/>
<path d="M41.4929 18.7044C41.2437 18.2741 40.6954 18.129 40.2695 18.3765C39.8409 18.6239 39.694 19.1714 39.9415 19.5999L41.6075 22.4859C41.8556 22.9156 42.4048 23.0601 42.831 22.8139C43.2595 22.5664 43.4064 22.0189 43.1589 21.5904L41.4929 18.7044Z" fill="#001571"/>
<path d="M29.5675 34.524L26.6806 32.8571C26.253 32.6088 25.7046 32.7557 25.4571 33.1851C25.2096 33.6136 25.3566 34.1611 25.7851 34.4086L28.6719 36.0754C29.099 36.3221 29.6477 36.1764 29.8954 35.7475C30.1429 35.3189 29.996 34.7715 29.5675 34.524Z" fill="#001571"/>
<path d="M24.2635 52.5215H20.9307C20.4357 52.5215 20.0352 52.922 20.0352 53.417C20.0352 53.912 20.4357 54.3125 20.9307 54.3125H24.2635C24.7585 54.3125 25.159 53.912 25.159 53.417C25.159 52.922 24.7585 52.5215 24.2635 52.5215Z" fill="#001571"/>
<path d="M28.6719 70.7554L25.7851 72.4222C25.3566 72.6697 25.2096 73.2172 25.4571 73.6457C25.7053 74.0754 26.2544 74.2198 26.6806 73.9737L29.5675 72.3068C29.996 72.0593 30.1429 71.5118 29.8954 71.0833C29.6462 70.653 29.0978 70.5079 28.6719 70.7554Z" fill="#001571"/>
<path d="M95.2147 72.4246L92.3288 70.7577C91.902 70.5137 91.3528 70.6554 91.1062 71.0857C90.8578 71.5142 91.0047 72.0616 91.4333 72.3092L94.3192 73.976C95.3405 74.5623 96.2478 73.0212 95.2147 72.4246Z" fill="#001571"/>
<path d="M100.066 52.5215H96.7324C96.2374 52.5215 95.8369 52.922 95.8369 53.417C95.8369 53.912 96.2374 54.3125 96.7324 54.3125H100.066C100.561 54.3125 100.962 53.912 100.962 53.417C100.962 52.922 100.561 52.5215 100.066 52.5215Z" fill="#001571"/>
<path d="M94.3192 32.8562L91.4333 34.523C91.0047 34.7705 90.8578 35.318 91.1062 35.7465C91.35 36.1731 91.8978 36.3219 92.3288 36.0744L95.2147 34.4076C95.6433 34.1601 95.7902 33.6126 95.5418 33.1841C95.2952 32.7538 94.746 32.6104 94.3192 32.8562Z" fill="#001571"/>
<path d="M80.73 18.3743C80.3032 18.1312 79.754 18.2729 79.5074 18.7023L77.8406 21.5882C77.5922 22.0168 77.7391 22.5642 78.1676 22.8117C78.5981 23.0588 79.1462 22.9108 79.3902 22.4838L81.0571 19.5978C81.3055 19.1693 81.1585 18.6218 80.73 18.3743Z" fill="#001571"/>
</svg>
