<svg width="40" height="41" viewBox="0 0 40 41" fill="none" xmlns="http://www.w3.org/2000/svg">
<path d="M15.1675 13.1348C15.7508 13.1348 16.376 13.3746 16.7648 13.757C17.1472 14.1459 17.387 14.6773 17.387 15.2606V19.4606C16.2139 19.4606 15.2612 18.5078 15.2612 17.3347L15.1675 13.1348Z" fill="#001571"/>
<path d="M19.4297 8.30029H35.9873V19.7678H19.4297V8.30029Z" fill="#E6E8F1"/>
<path d="M18.397 6.25342H37.0197V8.29999H18.397V6.25342Z" fill="#E6E8F1"/>
<path d="M28.7842 22.6977C28.7842 23.2947 28.3006 23.7783 27.7095 23.7783C27.1125 23.7783 26.6289 23.2947 26.6289 22.6977C26.6289 22.1066 27.1125 21.623 27.7095 21.623C28.3006 21.6231 28.7842 22.1066 28.7842 22.6977Z" fill="#E6E8F1"/>
<path d="M0.927734 25.6831H22.271V28.578H0.927734V25.6831Z" fill="#E6E8F1"/>
<path d="M4.6333 28.5776H18.5646V39.6726H4.6333V28.5776Z" fill="#E6E8F1"/>
<path d="M13.7989 32.6443V35.6055C13.7989 36.2085 13.5542 36.7577 13.1542 37.1577C12.7541 37.5577 12.2049 37.8025 11.6019 37.8025C10.384 37.8025 9.39893 36.8174 9.39893 35.6055V32.6443C9.39893 31.4324 10.384 30.4473 11.6019 30.4473C12.8139 30.4473 13.7989 31.4324 13.7989 32.6443Z" fill="#E6E8F1"/>
<path d="M4.63373 31.3411H2.97498L0.927734 28.5781H4.63373V31.4001" fill="#001571"/>
<path d="M16.4798 15.1819C16.4868 15.7972 15.9904 16.2936 15.3821 16.3006V16.3985C15.396 18.3423 13.8228 19.9365 11.8791 19.9504C9.92827 19.9644 8.34811 18.3912 8.33411 16.4475V16.3496C7.71181 16.3565 7.21541 15.8671 7.21541 15.2448C7.20841 14.6365 7.69785 14.1331 8.31311 14.1261H8.32711C8.33411 13.9024 8.36907 13.6856 8.41802 13.4828C8.78162 11.9446 10.152 10.7839 11.8161 10.7769C12.788 10.77 13.669 11.1545 14.3123 11.7908C14.8856 12.3501 15.2702 13.1123 15.3401 13.9513C15.3471 13.9933 15.3541 14.0352 15.3541 14.0772H15.3611C15.9694 14.0772 16.4798 14.5736 16.4798 15.1819Z" fill="#E6E8F1"/>
<path d="M15.3401 13.9513C14.9205 14.203 14.4311 14.3428 13.9067 14.3428C12.9907 14.3428 12.1797 13.9163 11.6623 13.2451C11.1728 13.6436 10.5575 13.8814 9.87231 13.8814C9.34092 13.8814 8.84447 13.7345 8.41797 13.4828C8.78157 11.9446 10.152 10.7839 11.8161 10.7769C12.788 10.77 13.669 11.1545 14.3122 11.7908C14.8856 12.3501 15.2701 13.1123 15.3401 13.9513Z" fill="#001571"/>
<path d="M18.5649 31.3411H20.2237L22.2709 28.5781H18.5649V31.4001" fill="#001571"/>
<path d="M31.5356 12.8667H33.6264V17.8052H31.5356V12.8667Z" fill="#001571"/>
<path d="M28.1284 15.043H30.2192V17.8048H28.1284V15.043Z" fill="#001571"/>
<path d="M24.7207 13.8643H26.8114V17.8046H24.7207V13.8643Z" fill="#001571"/>
<path d="M21.313 16.0728H23.4037V17.8041H21.313V16.0728Z" fill="#001571"/>
<path d="M38.9027 27.4589C38.7488 27.4003 38.5762 27.4787 38.5179 27.6326C36.9694 31.731 34.0514 35.2554 30.3011 37.5571C30.1606 37.6434 30.1166 37.8274 30.2029 37.9679C30.2897 38.1088 30.4733 38.1518 30.6136 38.0661C34.4758 35.6956 37.4813 32.0651 39.0765 27.8437C39.1348 27.6895 39.0569 27.5172 38.9027 27.4589Z" fill="#001571"/>
<path d="M28.6538 38.4634C27.9341 38.8161 27.1846 39.1283 26.4261 39.3907C26.2704 39.4446 26.1877 39.6148 26.2416 39.7705C26.2955 39.9261 26.465 40.0086 26.6214 39.955C27.4027 39.6845 28.1752 39.363 28.9168 38.9992C29.0649 38.9269 29.1258 38.7479 29.0532 38.5998C28.9812 38.4517 28.8019 38.3893 28.6538 38.4634Z" fill="#001571"/>
<path d="M1.33288 12.9852C1.48626 13.0503 1.66045 12.9792 1.72526 12.829C2.04242 12.0915 2.40885 11.3656 2.81435 10.6718C2.89743 10.5292 2.84962 10.3465 2.70736 10.2634C2.56423 10.1803 2.38233 10.2284 2.29896 10.3704C1.88122 11.0855 1.50371 11.8332 1.17664 12.5929C1.11162 12.7444 1.18159 12.9199 1.33288 12.9852Z" fill="#001571"/>
<path d="M3.97464 8.90908C6.44491 5.55408 9.97657 3.01122 13.9195 1.74869C14.0767 1.69856 14.1632 1.53035 14.1128 1.37352C14.0627 1.21668 13.8953 1.13011 13.7376 1.18025C9.67602 2.48068 6.03796 5.09991 3.49365 8.55519C3.39599 8.68783 3.42427 8.87469 3.5572 8.97263C3.69076 9.07043 3.87715 9.0415 3.97464 8.90908Z" fill="#001571"/>
<path d="M39.3551 14.2305C38.6848 12.2092 37.6953 10.3196 36.4313 8.59639H37.0174C37.1846 8.59639 37.3159 8.46503 37.3159 8.29788V6.25013C37.3159 6.08892 37.1846 5.95162 37.0174 5.95162H30.4192C27.4637 3.84149 23.8547 2.58984 19.9541 2.58984C9.99612 2.58984 1.89445 10.6889 1.89445 20.6437C1.89445 22.2852 2.12529 23.872 2.53806 25.3844H0.927902C0.76072 25.3844 0.629395 25.5158 0.629395 25.683V28.5725C0.629395 28.7935 0.699628 28.711 2.73684 31.5158C2.79059 31.5934 2.88012 31.6412 2.97566 31.6412H4.33683V39.671C4.33683 39.8382 4.46819 39.9695 4.63534 39.9695H18.5637C18.7309 39.9695 18.8622 39.8382 18.8622 39.671V38.6592C19.2241 38.6824 19.5865 38.7034 19.9541 38.7034C29.9122 38.7034 38.0138 30.6017 38.0138 20.6437C38.0138 17.8964 37.3864 15.2964 36.2831 12.9633V9.42632C37.3482 10.9706 38.1987 12.6403 38.7884 14.4182C38.8398 14.5726 39.0064 14.6597 39.1656 14.6077C39.3221 14.5558 39.407 14.3867 39.3551 14.2305ZM27.71 21.9218C28.1398 21.9218 28.4861 22.268 28.4861 22.6979C28.4861 23.1277 28.1398 23.48 27.71 23.48C27.2801 23.48 26.9279 23.1277 26.9279 22.6979C26.9279 22.268 27.2801 21.9218 27.71 21.9218ZM19.7279 19.468V8.59639H35.6861V19.468H19.7279ZM36.7189 7.99938C29.9491 7.99938 22.7007 7.99938 18.695 7.99938V6.54864H36.7189V7.99938ZM1.22641 25.9815C16.676 25.9838 -4.96992 25.9818 21.9727 25.9815V28.28C15.8403 28.28 7.35508 28.28 1.22641 28.28V25.9815ZM8.53984 16.1367C8.48012 16.0829 8.4025 16.0531 8.31891 16.0531C7.8899 16.0531 7.51295 15.7122 7.51295 15.2412C7.51295 14.8077 7.84145 14.4359 8.32489 14.4233C8.66415 14.4233 8.62138 14.0473 8.64132 13.9277C9.60849 14.3337 10.7547 14.2262 11.6144 13.6531C12.2055 14.2859 13.0234 14.6382 13.907 14.6382C14.2473 14.6382 14.5816 14.5844 14.898 14.477C15.0174 14.4411 15.1249 14.3934 15.2324 14.3456C15.3307 14.3877 15.3455 14.3661 15.495 14.3874C16.4802 14.5567 16.3637 15.9993 15.3756 15.9993C15.2145 16.0053 15.0831 16.1367 15.0831 16.2979C15.0797 16.3653 15.1065 16.8037 14.9637 17.2829C14.5829 18.6793 13.2811 19.6531 11.8771 19.6531C11.8173 19.6531 11.7935 19.6531 11.8533 19.6531C10.1415 19.6531 8.651 18.253 8.63535 16.4471V16.3516C8.63535 16.268 8.59356 16.1964 8.53984 16.1367ZM9.38759 12.2083C9.91251 11.5525 10.8587 11.074 11.8413 11.074C13.3185 11.074 14.4952 12.0803 14.8682 13.1994C14.8682 13.1994 14.8742 13.1994 14.8682 13.2053L14.8861 13.8441C14.5816 13.9755 14.2532 14.0412 13.907 14.0412C13.113 14.0412 12.3786 13.6889 11.901 13.0621C11.8473 12.9964 11.7757 12.9546 11.698 12.9486H11.6622C11.5966 12.9486 11.5249 12.9725 11.4712 13.0143C10.7189 13.6292 9.65028 13.7486 8.77265 13.3307C8.77265 13.1324 9.26641 12.2689 9.38759 12.2083ZM15.6801 16.5665C16.313 16.4232 16.7846 15.8501 16.7786 15.1814C16.7786 14.5009 16.2831 13.9277 15.6264 13.8023C15.6204 13.7725 15.6204 13.7426 15.6085 13.7128C15.6025 13.6471 15.5965 13.5814 15.5786 13.5218C15.5786 13.5038 15.5727 13.4859 15.5667 13.474C16.5705 13.6779 17.0891 14.4431 17.0891 15.2591V19.1397C16.2353 18.9964 15.5786 18.2621 15.5607 17.3665C15.6323 17.1098 15.6682 16.8412 15.6801 16.5665ZM10.91 20.1307C11.2085 20.2083 11.5249 20.2501 11.8533 20.2501H11.8831C12.4121 20.24 12.6936 20.1479 12.7867 20.13C12.8611 20.626 13.0151 21.1248 13.2491 21.6189C13.1906 22.3543 12.5897 22.9227 11.8472 22.9227C11.1043 22.9227 10.5036 22.3542 10.4456 21.6189C10.6823 21.1152 10.8342 20.624 10.9079 20.13C10.9087 20.1302 10.9092 20.1305 10.91 20.1307ZM9.87864 21.8634C10.0468 22.8112 10.8578 23.5198 11.8472 23.5198C12.8365 23.5198 13.6475 22.8111 13.816 21.8634H15.62C16.4225 21.8634 17.0755 22.5164 17.0755 23.3189V25.3844H15.287V24.1926C15.287 24.0276 15.1535 23.8941 14.9885 23.8941C14.8235 23.8941 14.69 24.0276 14.69 24.1926V25.3844H14.6891H9.00549H9.00469V24.1926C9.00469 24.0276 8.87118 23.8941 8.70618 23.8941C8.54119 23.8941 8.40767 24.0276 8.40767 24.1926V25.3844H6.61925V23.3189C6.61925 22.5164 7.27224 21.8634 8.07477 21.8634H9.87864ZM18.8622 28.877H21.6801L20.0741 31.0441H18.8622V28.877ZM3.12491 31.0441L1.51894 28.877H4.33683V31.0441H3.12491ZM18.2652 39.3725H4.93385C4.93385 37.0936 4.93385 32.7975 4.93385 28.877H18.2652V39.3725ZM37.4168 20.6437C37.4168 30.2726 29.5831 38.1064 19.9541 38.1064C19.5864 38.1064 19.224 38.0848 18.8622 38.0609V31.6412H20.2234C20.3189 31.6412 20.4085 31.5934 20.4622 31.5158C22.5702 28.6136 22.5697 28.7806 22.5697 28.5725V25.683C22.5697 25.5158 22.4383 25.3844 22.2712 25.3844H17.6725V23.3189C17.6725 22.1873 16.7516 21.2664 15.62 21.2664H13.7403C13.5411 20.8233 13.4178 20.3788 13.3633 19.9398C14.1276 19.6114 14.7607 19.0382 15.1727 18.3218C15.5488 19.1695 16.4025 19.7606 17.3876 19.7606C17.5488 19.7606 17.6861 19.6232 17.6861 19.4621V15.2591C17.6861 14.0355 16.7762 12.9581 15.3756 12.8471C14.937 11.6404 13.5742 10.477 11.8174 10.477C9.76829 10.4839 8.19536 12.1116 8.05028 13.8561C7.4046 13.9797 6.90491 14.5533 6.91594 15.2471C6.91594 15.9496 7.42031 16.4993 8.03833 16.6203C8.11594 18.1009 9.0413 19.3665 10.3309 19.9277C10.3314 19.9279 10.3319 19.9281 10.3324 19.9283C10.2789 20.3711 10.1571 20.812 9.95384 21.2664H8.07476C6.94311 21.2664 6.02223 22.1873 6.02223 23.3189V25.3845H3.15658C2.72959 23.8753 2.49146 22.2877 2.49146 20.6437C2.49146 11.018 10.3252 3.18686 19.9541 3.18686C23.4159 3.18686 26.6398 4.20766 29.3568 5.95163H18.3965C18.2294 5.95163 18.098 6.08893 18.098 6.25014V8.29789C18.098 8.46504 18.2294 8.5964 18.3965 8.5964H19.1309V19.7665C19.1309 19.9337 19.2622 20.065 19.4294 20.065H27.4095V21.3612C26.7955 21.4992 26.3309 22.0419 26.3309 22.6979C26.3309 23.4561 26.9518 24.077 27.71 24.077C28.4682 24.077 29.0831 23.4561 29.0831 22.6979C29.0831 22.0411 28.6234 21.4979 28.0085 21.3606C28.0079 21.3604 28.0072 21.3605 28.0066 21.3604V20.065H35.9846C36.1518 20.065 36.2831 19.9337 36.2831 19.7665V14.4689C37.0127 16.39 37.4168 18.4699 37.4168 20.6437Z" fill="#001571"/>
<path d="M35.1325 4.54184H36.1292C36.2942 4.54184 36.4277 4.40833 36.4277 4.24333C36.4277 4.07833 36.2942 3.94482 36.1292 3.94482H35.1325C34.9675 3.94482 34.834 4.07833 34.834 4.24333C34.834 4.40833 34.9675 4.54184 35.1325 4.54184Z" fill="#001571"/>
<path d="M31.0783 4.54184H33.9237C34.0887 4.54184 34.2222 4.40833 34.2222 4.24333C34.2222 4.07833 34.0887 3.94482 33.9237 3.94482H31.0783C30.9133 3.94482 30.7798 4.07833 30.7798 4.24333C30.7798 4.40833 30.9133 4.54184 31.0783 4.54184Z" fill="#001571"/>
<path d="M11.603 30.1489C10.2239 30.1489 9.10156 31.2653 9.10156 32.6444V35.6056C9.10156 36.9788 10.2239 38.1012 11.603 38.1012C12.2657 38.1012 12.8926 37.8385 13.3642 37.3668C13.8359 36.8952 14.0986 36.2683 14.0986 35.6056V32.6444C14.0986 31.2653 12.9762 30.1489 11.603 30.1489ZM13.5016 35.6056C13.5016 36.1131 13.3045 36.5848 12.9463 36.9489C12.5821 37.3071 12.1105 37.5041 11.603 37.5041C10.5523 37.5041 9.69858 36.6504 9.69858 35.6056V32.6444C9.69858 31.5997 10.5523 30.7459 11.603 30.7459C12.6478 30.7459 13.5016 31.5997 13.5016 32.6444V35.6056Z" fill="#001571"/>
<path d="M10.3982 16.1265C10.6699 16.1265 10.8901 15.9062 10.8901 15.6345C10.8901 15.3628 10.6699 15.1426 10.3982 15.1426C10.1265 15.1426 9.90625 15.3628 9.90625 15.6345C9.90625 15.9062 10.1265 16.1265 10.3982 16.1265Z" fill="#001571"/>
<path d="M10.5517 17.549C10.4328 17.6632 10.429 17.8521 10.543 17.9711C10.8884 18.3308 11.3514 18.5287 11.8469 18.5287C12.3428 18.5287 12.8057 18.3308 13.1509 17.9711C13.2648 17.8521 13.261 17.6632 13.1421 17.549C13.0229 17.435 12.8343 17.4391 12.72 17.5577C12.2577 18.0399 11.4373 18.0404 10.9738 17.5577C10.8596 17.4385 10.6704 17.435 10.5517 17.549Z" fill="#001571"/>
<path d="M13.2151 16.1265C13.4868 16.1265 13.707 15.9062 13.707 15.6345C13.707 15.3628 13.4868 15.1426 13.2151 15.1426C12.9434 15.1426 12.7231 15.3628 12.7231 15.6345C12.7231 15.9062 12.9434 16.1265 13.2151 16.1265Z" fill="#001571"/>
<path d="M32.3953 9.84463L29.1653 12.421L25.9412 10.0907C25.8369 10.0155 25.6958 10.0155 25.5914 10.0907L22.1836 12.5539C22.0501 12.6504 22.0201 12.8373 22.1166 12.9708C22.2132 13.1046 22.4004 13.1342 22.5335 13.0378L25.7663 10.7011L28.9992 13.0378C29.107 13.1166 29.2545 13.1125 29.3604 13.0294L32.7678 10.3116C32.8967 10.2087 32.9177 10.021 32.8151 9.89185C32.7116 9.7633 32.5244 9.74232 32.3953 9.84463Z" fill="#001571"/>
<path d="M35.3049 21.0474H33.1984C33.0334 21.0474 32.8999 21.1809 32.8999 21.3459C32.8999 21.5109 33.0334 21.6444 33.1984 21.6444H35.3049C35.4699 21.6444 35.6034 21.5109 35.6034 21.3459C35.6034 21.1809 35.4699 21.0474 35.3049 21.0474Z" fill="#001571"/>
<path d="M31.9293 21.0469H31.1877C31.0227 21.0469 30.8892 21.1804 30.8892 21.3454C30.8892 21.5104 31.0227 21.6439 31.1877 21.6439H31.9293C32.0943 21.6439 32.2278 21.5104 32.2278 21.3454C32.2278 21.1804 32.0943 21.0469 31.9293 21.0469Z" fill="#001571"/>
</svg>
