<svg width="40" height="41" viewBox="0 0 40 41" fill="none" xmlns="http://www.w3.org/2000/svg">
<path d="M7.39185 9.84448C7.39185 8.67451 6.44444 7.72705 5.27441 7.72705H24.0462C25.1763 7.72705 26.101 8.64598 26.101 9.78174V34.5864H9.5488C8.35758 34.5864 7.39185 33.6207 7.39185 32.4295V9.84448Z" fill="#E6E8F1"/>
<path d="M7.39117 9.84448V11.1401H3.15625V9.84448C3.15625 9.25666 3.39028 8.73159 3.77834 8.34914C4.16079 7.96675 4.69159 7.72705 5.27374 7.72705C6.44377 7.72705 7.39117 8.67451 7.39117 9.84448Z" fill="#001571"/>
<path d="M29.9619 32.4692C29.9619 32.6919 29.9276 32.903 29.8649 33.0971C29.8477 33.1656 29.8249 33.2283 29.7964 33.2968V33.3026C29.745 33.4224 29.6822 33.5423 29.6023 33.6507C29.5966 33.6564 29.6023 33.6564 29.6023 33.6564C29.4321 33.91 29.2069 34.1157 28.9486 34.2719C28.9429 34.2755 28.9372 34.279 28.9314 34.2825C28.7876 34.3676 28.6365 34.4416 28.4722 34.4897C28.3409 34.5353 28.2097 34.5639 28.0727 34.5753C27.9985 34.581 27.9186 34.5867 27.8444 34.5867H9.67188V34.581C10.1912 34.5411 10.6649 34.3128 11.0131 33.9646C11.4012 33.5822 11.6352 33.0571 11.6352 32.4692H29.9619Z" fill="#001571"/>
<path d="M35.2267 10.355H24.1854C23.7664 10.355 23.4268 10.6947 23.4268 11.1137V25.2814C23.4268 25.7004 23.7664 26.0401 24.1854 26.0401H35.2267C35.6457 26.0401 35.9854 25.7004 35.9854 25.2814V11.1137C35.9854 10.6947 35.6457 10.355 35.2267 10.355Z" fill="#E6E8F1"/>
<path d="M25.8765 12.8047H33.5356V15.3545H25.8765V12.8047Z" fill="#E6E8F1"/>
<path d="M20.984 25.5634C20.984 28.1507 18.887 30.2539 16.2935 30.2539C13.7001 30.2539 11.603 28.1507 11.603 25.5634C11.603 22.97 13.7001 20.8667 16.2935 20.8667C18.887 20.8667 20.984 22.97 20.984 25.5634Z" fill="#001571"/>
<path d="M14.8689 39.3828C12.6051 38.6342 10.5038 37.4536 8.62303 35.8742C8.49646 35.7676 8.30816 35.7851 8.20237 35.911C8.09622 36.0369 8.11258 36.2252 8.23879 36.3313C10.178 37.9597 12.3456 39.1771 14.6812 39.9495C14.8345 40.0011 15.0061 39.9186 15.0584 39.7601C15.1103 39.6033 15.0252 39.4347 14.8689 39.3828Z" fill="#001571"/>
<path d="M1.5461 19.2461C1.56097 19.0823 1.44001 18.9371 1.2756 18.922C1.11583 18.9121 0.966282 19.0281 0.951416 19.1925C0.522043 23.9359 1.92389 28.7605 4.89936 32.7781C4.99727 32.9096 5.18359 32.9389 5.31679 32.8399C5.44945 32.7419 5.47715 32.5554 5.37918 32.4224C2.49118 28.5232 1.12986 23.8438 1.5461 19.2461Z" fill="#001571"/>
<path d="M14.2324 2.87065C20.3472 0.65226 27.4012 1.83232 32.6426 5.9525C32.7729 6.05507 32.9603 6.03196 33.0618 5.90241C33.1638 5.77298 33.141 5.58522 33.0116 5.48378C27.6093 1.23584 20.3344 0.0208569 14.029 2.30981C13.8739 2.36575 13.7938 2.53716 13.85 2.69226C13.9065 2.84736 14.0785 2.92724 14.2324 2.87065Z" fill="#001571"/>
<path d="M38.9421 28.1254C38.7919 28.0613 38.6153 28.1307 38.5503 28.2828C38.3818 28.6775 38.1976 29.0722 38.0031 29.4547C37.9285 29.6016 37.9871 29.7812 38.134 29.8558C38.2811 29.9308 38.4608 29.872 38.5354 29.7252C38.736 29.3305 38.9257 28.9242 39.0995 28.5172C39.1642 28.3656 39.0937 28.1901 38.9421 28.1254Z" fill="#001571"/>
<path d="M37.4093 31.1203C37.2705 31.0299 37.0857 31.0713 36.9965 31.2095C34.8183 34.5904 31.6108 37.305 27.9643 38.8535C27.8124 38.9176 27.7416 39.0931 27.806 39.2447C27.8713 39.3981 28.0484 39.4669 28.1975 39.4027C31.9531 37.8087 35.2562 35.0131 37.4984 31.5325C37.5877 31.3943 37.5478 31.2095 37.4093 31.1203Z" fill="#001571"/>
<path d="M38.212 21.0168C38.212 18.1559 37.5105 15.4594 36.2842 13.0749V11.1141C36.2842 10.5311 35.8099 10.0571 35.2272 10.0571H34.324C31.1229 6.10439 26.2362 3.56982 20.7653 3.56982C16.633 3.56982 12.8356 5.01866 9.84335 7.42887H5.27416C3.97911 7.42887 2.8584 8.47579 2.8584 9.84433V11.1404C2.8584 11.3054 2.99189 11.4389 3.15691 11.4389H6.19559C4.38001 14.1902 3.3187 17.4808 3.3187 21.0168C3.3187 25.1024 4.73362 28.8609 7.0932 31.8378V32.4295C7.0932 33.7838 8.19482 34.8851 9.54861 34.8851C9.60867 34.8851 10.2528 34.8851 10.1927 34.8851C13.1286 37.1311 16.7924 38.4701 20.7653 38.4701C30.3855 38.4701 38.212 30.6407 38.212 21.0168ZM35.6872 11.1141V25.2816C35.6872 25.5358 35.4808 25.7422 35.2272 25.7422H24.1859C23.932 25.7422 23.7256 25.5358 23.7256 25.2816V11.1141C23.7256 10.8605 23.932 10.6541 24.1859 10.6541H35.2272C35.4808 10.6541 35.6872 10.8605 35.6872 11.1141ZM20.7653 4.16684C25.8736 4.16684 30.454 6.45556 33.5465 10.0571H26.3994V9.78194C26.3994 8.48469 25.3435 7.42887 24.046 7.42887H10.8351C13.6231 5.38547 17.0516 4.16684 20.7653 4.16684ZM3.45541 10.8419V9.84433C3.45541 8.80499 4.31094 8.02588 5.27416 8.02588C6.27726 8.02588 7.0932 8.84153 7.0932 9.84433C7.09243 9.90445 7.08013 10.9056 7.08097 10.8419H3.45541ZM3.91571 21.0168C3.91571 17.4574 5.03774 14.1619 6.92914 11.4389H7.0932V30.8317C5.1018 28.064 3.91571 24.6796 3.91571 21.0168ZM7.69022 32.4295V11.1404V9.84433C7.69022 9.14206 7.34825 8.45048 6.86288 8.02588H24.046C25.0144 8.02588 25.8023 8.81353 25.8023 9.78194V10.0571H24.1859C23.6029 10.0571 23.1286 10.5311 23.1286 11.1141V25.2816C23.1286 25.8646 23.6029 26.3392 24.1859 26.3392H25.8023V32.1706H11.6355C11.4705 32.1706 11.337 32.3041 11.337 32.4691C11.337 32.9576 11.1478 33.413 10.8023 33.7535C10.2416 34.3142 9.60831 34.2738 9.54861 34.2881C8.52389 34.2881 7.69022 33.4544 7.69022 32.4295ZM11.1041 34.2881C11.5746 33.8781 11.846 33.3407 11.916 32.7676H29.6386C29.4774 33.7219 28.6537 34.2881 27.8447 34.2881C21.2966 34.2881 16.9007 34.2881 11.1041 34.2881ZM20.7653 37.8731C17.2225 37.8731 13.9409 36.7614 11.2253 34.8851H27.8447C29.0474 34.8851 30.2607 33.9332 30.2607 32.4691C30.2607 32.3041 30.1272 32.1706 29.9622 32.1706H26.3993V26.3392H35.2272C35.8099 26.3392 36.2842 25.8646 36.2842 25.2816V14.4603C37.1398 16.4767 37.615 18.692 37.615 21.0168C37.615 30.3113 30.0564 37.8731 20.7653 37.8731Z" fill="#001571"/>
<path d="M10.9958 14.7689H16.7464C16.9114 14.7689 17.0449 14.6354 17.0449 14.4704C17.0449 14.3054 16.9114 14.1719 16.7464 14.1719H10.9958C10.8308 14.1719 10.6973 14.3054 10.6973 14.4704C10.6973 14.6354 10.8308 14.7689 10.9958 14.7689Z" fill="#001571"/>
<path d="M20.8163 14.7689C20.9813 14.7689 21.1148 14.6354 21.1148 14.4704C21.1148 14.3054 20.9813 14.1719 20.8163 14.1719H18.6501C18.4851 14.1719 18.3516 14.3054 18.3516 14.4704C18.3516 14.6354 18.4851 14.7689 18.6501 14.7689H20.8163Z" fill="#001571"/>
<path d="M14.654 11.1976H20.8159C20.981 11.1976 21.1145 11.0641 21.1145 10.8991C21.1145 10.7341 20.981 10.6006 20.8159 10.6006H14.654C14.489 10.6006 14.3555 10.7341 14.3555 10.8991C14.3555 11.0641 14.489 11.1976 14.654 11.1976Z" fill="#001571"/>
<path d="M10.9958 11.1976H12.6828C12.8478 11.1976 12.9813 11.0641 12.9813 10.8991C12.9813 10.7341 12.8478 10.6006 12.6828 10.6006H10.9958C10.8308 10.6006 10.6973 10.7341 10.6973 10.8991C10.6973 11.0641 10.8308 11.1976 10.9958 11.1976Z" fill="#001571"/>
<path d="M10.9958 18.3402H12.3125C12.4776 18.3402 12.6111 18.2067 12.6111 18.0417C12.6111 17.8767 12.4776 17.7432 12.3125 17.7432H10.9958C10.8308 17.7432 10.6973 17.8767 10.6973 18.0417C10.6973 18.2067 10.8308 18.3402 10.9958 18.3402Z" fill="#001571"/>
<path d="M13.5737 18.0417C13.5737 18.2067 13.7073 18.3402 13.8722 18.3402H20.8164C20.9814 18.3402 21.1149 18.2067 21.1149 18.0417C21.1149 17.8767 20.9814 17.7432 20.8164 17.7432H13.8722C13.7073 17.7432 13.5737 17.8767 13.5737 18.0417Z" fill="#001571"/>
<path d="M25.8766 15.6534H33.5359C33.7008 15.6534 33.8344 15.5199 33.8344 15.3549V12.8053C33.8344 12.6403 33.7008 12.5068 33.5359 12.5068H25.8766C25.7117 12.5068 25.5781 12.6403 25.5781 12.8053V15.3549C25.5781 15.5199 25.7117 15.6534 25.8766 15.6534ZM26.1751 13.1039H33.2373V15.0564H26.1751V13.1039Z" fill="#001571"/>
<path d="M27.1996 16.626H25.8766C25.7117 16.626 25.5781 16.7595 25.5781 16.9245C25.5781 17.0895 25.7117 17.223 25.8766 17.223H27.1996C27.3645 17.223 27.4981 17.0895 27.4981 16.9245C27.4981 16.7595 27.3645 16.626 27.1996 16.626Z" fill="#001571"/>
<path d="M27.1996 18.8477H25.8766C25.7117 18.8477 25.5781 18.9812 25.5781 19.1462C25.5781 19.3112 25.7117 19.4447 25.8766 19.4447H27.1996C27.3645 19.4447 27.4981 19.3112 27.4981 19.1462C27.4981 18.9812 27.3645 18.8477 27.1996 18.8477Z" fill="#001571"/>
<path d="M27.1996 21.0698H25.8766C25.7117 21.0698 25.5781 21.2033 25.5781 21.3683C25.5781 21.5333 25.7117 21.6668 25.8766 21.6668H27.1996C27.3645 21.6668 27.4981 21.5333 27.4981 21.3683C27.4981 21.2033 27.3645 21.0698 27.1996 21.0698Z" fill="#001571"/>
<path d="M27.1996 23.2915H25.8766C25.7117 23.2915 25.5781 23.425 25.5781 23.59C25.5781 23.755 25.7117 23.8885 25.8766 23.8885H27.1996C27.3645 23.8885 27.4981 23.755 27.4981 23.59C27.4981 23.425 27.3645 23.2915 27.1996 23.2915Z" fill="#001571"/>
<path d="M30.3675 16.626H29.0446C28.8796 16.626 28.7461 16.7595 28.7461 16.9245C28.7461 17.0895 28.8796 17.223 29.0446 17.223H30.3675C30.5325 17.223 30.666 17.0895 30.666 16.9245C30.666 16.7595 30.5325 16.626 30.3675 16.626Z" fill="#001571"/>
<path d="M30.3675 18.8477H29.0446C28.8796 18.8477 28.7461 18.9812 28.7461 19.1462C28.7461 19.3112 28.8796 19.4447 29.0446 19.4447H30.3675C30.5325 19.4447 30.666 19.3112 30.666 19.1462C30.666 18.9812 30.5325 18.8477 30.3675 18.8477Z" fill="#001571"/>
<path d="M30.3675 21.0698H29.0446C28.8796 21.0698 28.7461 21.2033 28.7461 21.3683C28.7461 21.5333 28.8796 21.6668 29.0446 21.6668H30.3675C30.5325 21.6668 30.666 21.5333 30.666 21.3683C30.666 21.2033 30.5325 21.0698 30.3675 21.0698Z" fill="#001571"/>
<path d="M30.3675 23.2915H29.0446C28.8796 23.2915 28.7461 23.425 28.7461 23.59C28.7461 23.755 28.8796 23.8885 29.0446 23.8885H30.3675C30.5325 23.8885 30.666 23.755 30.666 23.59C30.666 23.425 30.5325 23.2915 30.3675 23.2915Z" fill="#001571"/>
<path d="M32.0051 17.223H33.3279C33.4929 17.223 33.6264 17.0895 33.6264 16.9245C33.6264 16.7595 33.4929 16.626 33.3279 16.626H32.0051C31.84 16.626 31.7065 16.7595 31.7065 16.9245C31.7065 17.0895 31.84 17.223 32.0051 17.223Z" fill="#001571"/>
<path d="M33.3279 18.8477H32.0051C31.84 18.8477 31.7065 18.9812 31.7065 19.1462C31.7065 19.3112 31.84 19.4447 32.0051 19.4447H33.3279C33.4929 19.4447 33.6264 19.3112 33.6264 19.1462C33.6264 18.9812 33.4929 18.8477 33.3279 18.8477Z" fill="#001571"/>
<path d="M33.3279 21.0698H32.0051C31.84 21.0698 31.7065 21.2033 31.7065 21.3683C31.7065 21.5333 31.84 21.6668 32.0051 21.6668H33.3279C33.4929 21.6668 33.6264 21.5333 33.6264 21.3683C33.6264 21.2033 33.4929 21.0698 33.3279 21.0698Z" fill="#001571"/>
<path d="M33.3279 23.2915H32.0051C31.84 23.2915 31.7065 23.425 31.7065 23.59C31.7065 23.755 31.84 23.8885 32.0051 23.8885H33.3279C33.4929 23.8885 33.6264 23.755 33.6264 23.59C33.6264 23.425 33.4929 23.2915 33.3279 23.2915Z" fill="#001571"/>
<path d="M16.2934 20.5684C13.5424 20.5684 11.3042 22.8089 11.3042 25.5631C11.3042 28.3144 13.5424 30.5526 16.2934 30.5526C19.0444 30.5526 21.2823 28.3144 21.2823 25.5631C21.2823 22.8089 19.0444 20.5684 16.2934 20.5684ZM16.2934 29.9556C13.8715 29.9556 11.9012 27.985 11.9012 25.5631C11.9012 23.1383 13.8715 21.1654 16.2934 21.1654C18.715 21.1654 20.6853 23.1383 20.6853 25.5631C20.6853 27.985 18.715 29.9556 16.2934 29.9556Z" fill="#001571"/>
<path d="M16.2935 25.262C15.9306 25.262 15.6356 24.9682 15.6356 24.6068C15.6356 24.2441 15.9306 23.9491 16.2935 23.9491C16.6564 23.9491 16.9515 24.2441 16.9515 24.6068C16.9515 24.7717 17.085 24.9053 17.25 24.9053C17.4149 24.9053 17.5485 24.7717 17.5485 24.6068C17.5485 24.018 17.1396 23.5266 16.592 23.3918V23.2419C16.592 23.0769 16.4585 22.9434 16.2935 22.9434C16.1285 22.9434 15.995 23.0769 15.995 23.2419V23.3918C15.4474 23.5266 15.0386 24.018 15.0386 24.6068C15.0386 25.297 15.6014 25.8591 16.2935 25.8591C16.6564 25.8591 16.9515 26.154 16.9515 26.5173C16.9515 26.88 16.6564 27.1749 16.2935 27.1749C15.9306 27.1749 15.6356 26.88 15.6356 26.5173C15.6356 26.3523 15.502 26.2188 15.3371 26.2188C15.1721 26.2188 15.0386 26.3523 15.0386 26.5173C15.0386 27.106 15.4474 27.5974 15.995 27.7322V27.8822C15.995 28.0471 16.1285 28.1807 16.2935 28.1807C16.4585 28.1807 16.592 28.0471 16.592 27.8822V27.7322C17.1396 27.5974 17.5485 27.106 17.5485 26.5173C17.5485 25.8253 16.9856 25.262 16.2935 25.262Z" fill="#E6E8F1"/>
<path d="M13.3269 25.1289C13.0911 25.1289 12.8926 25.3213 12.8926 25.5632C12.8926 25.799 13.0911 25.9975 13.3269 25.9975C13.5689 25.9975 13.7674 25.799 13.7674 25.5632C13.7674 25.3213 13.5689 25.1289 13.3269 25.1289Z" fill="#001571"/>
<path d="M18.8179 25.5632C18.8179 25.799 19.0164 25.9975 19.2584 25.9975C19.4941 25.9975 19.6927 25.799 19.6927 25.5632C19.6927 25.3213 19.4941 25.1289 19.2584 25.1289C19.0164 25.1289 18.8179 25.3213 18.8179 25.5632Z" fill="#001571"/>
</svg>
