<svg width="40" height="41" viewBox="0 0 40 41" fill="none" xmlns="http://www.w3.org/2000/svg">
<path d="M18.2338 26.6599C22.5719 26.6599 26.0886 23.1432 26.0886 18.8051C26.0886 14.4669 22.5719 10.9502 18.2338 10.9502C13.8956 10.9502 10.3789 14.4669 10.3789 18.8051C10.3789 23.1432 13.8956 26.6599 18.2338 26.6599Z" fill="#E6E8F1"/>
<path d="M21.8433 17.696V19.907H19.3426V22.4136H17.1316V19.907H14.625V17.696H17.1316V15.1953H19.3426V17.696H21.8433Z" fill="#001571"/>
<path d="M36.4495 30.4432C36.3155 30.3629 36.1392 30.4042 36.0566 30.5392C34.6247 32.8975 32.7402 34.8841 30.4545 36.4427C30.3245 36.5314 30.291 36.7094 30.3797 36.84C30.4675 36.9686 30.644 37.0045 30.777 36.9148C33.1297 35.3099 35.0705 33.2646 36.5454 30.8361C36.6269 30.701 36.5839 30.5253 36.4495 30.4432Z" fill="#001571"/>
<path d="M38.2463 26.3968C38.0968 26.3449 37.9349 26.4281 37.8858 26.5787C37.6643 27.2517 37.4009 27.9225 37.1029 28.5732C37.0376 28.7166 37.1007 28.8862 37.2441 28.9521C37.39 29.0176 37.558 28.9529 37.623 28.8109C37.9294 28.1412 38.2 27.4504 38.4282 26.7573C38.4779 26.6078 38.3964 26.4459 38.2463 26.3968Z" fill="#001571"/>
<path d="M10.512 3.34711C10.964 3.10827 11.4289 2.88673 11.8931 2.68695C12.0382 2.62501 12.1052 2.45704 12.0427 2.31195C11.9802 2.1663 11.8122 2.09934 11.6677 2.1624C11.1895 2.3672 10.7112 2.59599 10.2453 2.84153C10.1057 2.91519 10.0522 3.08818 10.1258 3.22769C10.1997 3.36739 10.3727 3.42043 10.512 3.34711Z" fill="#001571"/>
<path d="M3.61086 9.45585C5.04334 7.39614 6.8324 5.65507 8.92894 4.28063C9.06064 4.19413 9.09747 4.01724 9.01097 3.88498C8.92392 3.75217 8.74646 3.71646 8.61532 3.80295C6.45796 5.21701 4.61644 7.00942 3.14211 9.12996C3.05171 9.25942 3.08407 9.43744 3.21354 9.52728C3.34228 9.61697 3.52038 9.58654 3.61086 9.45585Z" fill="#001571"/>
<path d="M12.3165 38.4477C7.8316 36.6709 4.20269 33.3015 2.09778 28.96C2.02858 28.8177 1.85894 28.7591 1.71608 28.8272C1.57378 28.8964 1.51463 29.0671 1.58327 29.2089C3.75068 33.6798 7.48785 37.1492 12.1056 38.979C12.2458 39.0355 12.4163 38.9706 12.4767 38.8188C12.5347 38.672 12.4627 38.5057 12.3165 38.4477Z" fill="#001571"/>
<path d="M37.1458 20.475C37.1458 10.7506 29.2345 2.83936 19.5102 2.83936C9.7853 2.83936 1.87402 10.7506 1.87402 20.475C1.87402 30.3246 9.80559 38.1106 19.5102 38.1106C29.1363 38.1106 37.1458 30.3782 37.1458 20.475ZM15.7418 37.114C15.5562 33.3197 13.7781 29.7725 10.903 27.1491C8.6296 25.0782 7.32547 22.1279 7.32547 19.0542C7.32547 12.9695 12.2477 8.11112 18.2686 8.11112C24.3099 8.11112 29.2167 12.9934 29.2167 19.0542V20.3773C29.2167 20.4197 29.2261 20.4616 29.244 20.5001L31.6787 25.6279C31.725 25.727 31.6515 25.8444 31.5414 25.8444H29.1553C28.9973 25.8444 28.8696 25.9722 28.8696 26.1301V28.4019C28.8696 29.2813 28.1536 29.9973 27.2741 29.9973H25.9672C25.8093 29.9973 25.6815 30.1251 25.6815 30.283V36.3853C23.7138 37.1508 21.6431 37.5391 19.5102 37.5391C18.2545 37.5391 16.9235 37.3845 15.7418 37.114ZM26.2529 36.1433V30.5687H27.2741C28.4689 30.5687 29.441 29.5966 29.441 28.4019V26.4158H31.5414C32.0698 26.4158 32.4205 25.862 32.1954 25.3834L29.7881 20.3131V19.0542C29.7881 12.6848 24.6337 7.53969 18.2686 7.53969C11.9442 7.53969 6.75405 12.6429 6.75405 19.0542C6.75405 22.288 8.12626 25.3929 10.518 27.5715C13.2355 30.0503 14.9335 33.3763 15.1572 36.9637C7.65559 34.9996 2.44545 28.2812 2.44545 20.475C2.44545 11.0659 10.1006 3.41078 19.5102 3.41078C28.9192 3.41078 36.5744 11.0659 36.5744 20.475C36.5744 27.342 32.534 33.4398 26.2529 36.1433Z" fill="#001571"/>
<path d="M29.5732 11.84C29.4387 11.9226 29.3963 12.0984 29.4783 12.2329C30.3756 13.7016 30.9649 15.311 31.23 17.0175C31.2533 17.1679 31.3938 17.2799 31.5564 17.2558C31.7121 17.2318 31.8187 17.0856 31.7947 16.9293C31.5185 15.1486 30.903 13.4678 29.966 11.9349C29.8829 11.7998 29.7066 11.7574 29.5732 11.84Z" fill="#001571"/>
<path d="M27.9438 9.37277C27.8322 9.26116 27.6514 9.26116 27.5398 9.37277C27.4282 9.48437 27.4282 9.66518 27.5398 9.77679C27.9164 10.154 28.2713 10.5536 28.595 10.9648C28.6933 11.0895 28.8728 11.1095 28.9962 11.0123C29.1201 10.9146 29.1413 10.7355 29.0437 10.611C28.7066 10.1825 28.3366 9.76618 27.9438 9.37277Z" fill="#001571"/>
<path d="M26.375 18.8052C26.375 14.3163 22.7232 10.6646 18.2344 10.6646C13.7455 10.6646 10.0938 14.3163 10.0938 18.8052C10.0938 23.294 13.7455 26.9458 18.2344 26.9458C22.7232 26.9458 26.375 23.294 26.375 18.8052ZM18.2344 26.3744C14.0608 26.3744 10.6652 22.9787 10.6652 18.8052C10.6652 14.6316 14.0608 11.236 18.2344 11.236C22.4079 11.236 25.8036 14.6316 25.8036 18.8052C25.8036 22.9787 22.4079 26.3744 18.2344 26.3744Z" fill="#001571"/>
<path d="M21.8418 17.4107H19.627V15.1959C19.627 15.0379 19.4992 14.9102 19.3412 14.9102H17.1303C16.9724 14.9102 16.8446 15.0379 16.8446 15.1959V17.4107H14.6236C14.4657 17.4107 14.3379 17.5385 14.3379 17.6964V19.9074C14.3379 20.0653 14.4657 20.1931 14.6236 20.1931H16.8446V22.4141C16.8446 22.572 16.9724 22.6998 17.1303 22.6998H19.3412C19.4992 22.6998 19.627 22.572 19.627 22.4141V20.1931H21.8418C21.9997 20.1931 22.1275 20.0653 22.1275 19.9074V17.6964C22.1275 17.5385 21.9997 17.4107 21.8418 17.4107ZM21.5561 19.6217H19.3412C19.1833 19.6217 19.0555 19.7494 19.0555 19.9074V22.1283H17.416V19.9074C17.416 19.7494 17.2882 19.6217 17.1303 19.6217H14.9093V17.9821H17.1303C17.2882 17.9821 17.416 17.8544 17.416 17.6964V15.4816H19.0555V17.6964C19.0555 17.8544 19.1833 17.9821 19.3412 17.9821H21.5561V19.6217Z" fill="#001571"/>
</svg>
