<svg width="41" height="41" viewBox="0 0 41 41" fill="none" xmlns="http://www.w3.org/2000/svg">
<path d="M24.512 11.5227C24.5 12.6868 24.0403 13.7435 23.306 14.5316C22.6015 15.2838 22.2493 16.2988 22.2493 17.3256V17.451H17.8135V17.26C17.8135 16.2152 17.3896 15.2361 16.6911 14.454C15.9806 13.66 15.5508 12.6152 15.5508 11.4689C15.5508 8.91968 17.6762 6.87192 20.2493 6.9913C22.6314 7.10473 24.5418 9.14057 24.512 11.5227Z" fill="#E6E8F1"/>
<path d="M11.9609 30.9359V32.8359H6.52441V30.9189L11.9609 30.9359Z" fill="#E6E8F1"/>
<path d="M4.07715 23.3108C4.07715 20.9443 5.98055 19.0273 8.3261 19.0273H15.5607C15.5607 20.1512 15.1312 21.1733 14.4279 21.9325L4.07715 23.3108Z" fill="#001571"/>
<path d="M4.07812 23.311V26.4918C4.07812 29.3715 6.3942 31.704 9.25352 31.704C12.1128 31.704 14.4289 29.3715 14.4289 26.4918V21.9199H5.46358C5.46358 22.6876 4.84454 23.311 4.07812 23.311Z" fill="#E6E8F1"/>
<path d="M2.75586 25.0329C2.75586 25.7666 3.34961 26.3646 4.07813 26.3646V23.7012C3.34961 23.7012 2.75586 24.2992 2.75586 25.0329Z" fill="#E6E8F1"/>
<path d="M14.4297 23.7012V26.3646C15.1582 26.3646 15.7519 25.7666 15.7519 25.0329C15.7519 24.2992 15.1582 23.7012 14.4297 23.7012Z" fill="#E6E8F1"/>
<path d="M6.39036 32.8364H3.82321C2.48439 32.8364 1.39746 33.9311 1.39746 35.2795V39.6271H17.1096V35.2795C17.1096 33.9311 16.0227 32.8364 14.6839 32.8364H12.1167H6.39036Z" fill="#E6E8F1"/>
<path d="M11.0825 27.8145C11.0514 28.8077 10.2464 29.6053 9.25265 29.6053C8.2589 29.6053 7.45392 28.8077 7.42285 27.8145H11.0825Z" fill="#001571"/>
<path d="M34.4775 30.9189V32.8359H29.041V30.9359L34.4775 30.9189Z" fill="#E6E8F1"/>
<path d="M26.5742 21.9325C25.8709 21.1733 25.4414 20.1512 25.4414 19.0273H32.676C35.0216 19.0273 36.9249 20.9443 36.9249 23.3108L26.5742 21.9325Z" fill="#001571"/>
<path d="M36.924 23.311V26.4918C36.924 29.3715 34.6079 31.704 31.7486 31.704C28.8893 31.704 26.5732 29.3715 26.5732 26.4918V21.9199H35.5386C35.5386 22.6876 36.1576 23.311 36.924 23.311Z" fill="#E6E8F1"/>
<path d="M38.2471 25.0329C38.2471 25.7666 37.6533 26.3646 36.9248 26.3646V23.7012C37.6533 23.7012 38.2471 24.2992 38.2471 25.0329Z" fill="#E6E8F1"/>
<path d="M26.5742 23.7012V26.3646C25.8457 26.3646 25.252 25.7666 25.252 25.0329C25.252 24.2992 25.8457 23.7012 26.5742 23.7012Z" fill="#E6E8F1"/>
<path d="M34.6118 32.8359H37.179C38.5178 32.8359 39.6047 33.9306 39.6047 35.279V39.6266H23.8926V35.279C23.8926 33.9306 24.9795 32.8359 26.3183 32.8359H28.8855H34.6118Z" fill="#E6E8F1"/>
<path d="M29.9199 27.8145C29.951 28.8077 30.756 29.6053 31.7497 29.6053C32.7435 29.6053 33.5485 28.8077 33.5795 27.8145H29.9199Z" fill="#001571"/>
<path d="M38.9042 29.7278C39.2108 29.0524 39.4196 28.3399 39.5248 27.6097C39.5481 27.4464 39.435 27.2951 39.2718 27.2715C39.1079 27.2485 38.9572 27.3616 38.9336 27.5246C38.8365 28.1988 38.6438 28.8571 38.3608 29.4812C38.2926 29.6313 38.359 29.8083 38.5092 29.8762C38.6558 29.9436 38.8352 29.8803 38.9042 29.7278Z" fill="#001571"/>
<path d="M1.42714 15.6981C1.45309 15.7051 1.47903 15.7083 1.50498 15.7083C1.63645 15.7083 1.75713 15.6206 1.79299 15.4874C3.58928 8.81964 8.85193 3.57507 15.5272 1.80064C15.6867 1.75807 15.7814 1.59454 15.7392 1.43537C15.6966 1.27591 15.5339 1.18117 15.3739 1.22344C8.49308 3.05268 3.06806 8.45904 1.21638 15.3323C1.17353 15.4915 1.26798 15.6553 1.42714 15.6981Z" fill="#001571"/>
<path d="M28.7454 2.99703C29.6257 3.41302 30.4822 3.89984 31.2911 4.44439C31.3424 4.47908 31.4002 4.4954 31.4576 4.4954C31.5535 4.4954 31.648 4.44934 31.7054 4.36364C31.7975 4.22692 31.7613 4.04123 31.6246 3.9494C30.7909 3.38795 29.9079 2.88597 29.0002 2.45716C28.8509 2.38603 28.6734 2.45075 28.6028 2.59971C28.5326 2.74866 28.5961 2.92648 28.7454 2.99703Z" fill="#001571"/>
<path d="M39.2076 15.4873C39.2508 15.6482 39.4163 15.7405 39.5734 15.6981C39.7326 15.6553 39.827 15.4914 39.7842 15.3323C38.7408 11.4604 36.5717 8.02146 33.5108 5.38737C33.3861 5.2798 33.1975 5.2935 33.0899 5.41885C32.9823 5.5439 32.9963 5.73222 33.1214 5.83979C36.091 8.39575 38.1957 11.7318 39.2076 15.4873Z" fill="#001571"/>
<path d="M20.2632 6.69296C15.9796 6.49853 13.6873 11.5439 16.4684 14.6527C17.117 15.379 17.4819 16.263 17.5095 17.1524H17.4551C17.2901 17.1524 17.1566 17.2859 17.1566 17.4509V19.051C17.1566 20.6377 18.4477 21.9285 20.0344 21.9285C21.6179 21.9285 22.9061 20.6377 22.9061 19.051V17.4509C22.9061 17.2859 22.7726 17.1524 22.6076 17.1524H22.563C22.6014 16.2226 22.9317 15.3679 23.5244 14.7349C26.3025 11.7536 24.2852 6.88456 20.2632 6.69296ZM22.3091 19.051C22.3091 20.3086 21.2888 21.3315 20.0344 21.3315C18.7768 21.3315 17.7536 20.3086 17.7536 19.051V17.7494H17.8134C17.9971 17.7494 22.5363 17.7494 22.2493 17.7494H22.3091L22.3091 19.051ZM23.0883 14.3273C22.3916 15.071 21.9922 16.0688 21.954 17.1524H20.3306V12.8287L22.3537 10.8C22.47 10.6834 22.47 10.4943 22.3531 10.3779C22.2365 10.2619 22.0476 10.2619 21.931 10.3785L20.0321 12.2827L18.1329 10.3785C18.0163 10.2616 17.8274 10.2616 17.7108 10.3779C17.5939 10.4943 17.5939 10.6834 17.7102 10.8L19.7336 12.8287V17.1524H18.1104C18.083 16.1163 17.6606 15.0914 16.9135 14.2547C14.4593 11.5108 16.5331 7.10847 20.235 7.28938C23.7505 7.45684 25.5218 11.7162 23.0883 14.3273Z" fill="#001571"/>
<path d="M20.0319 4.25879C19.8669 4.25879 19.7334 4.3923 19.7334 4.5573V5.37324C19.7334 5.53823 19.8669 5.67174 20.0319 5.67174C20.1969 5.67174 20.3304 5.53823 20.3304 5.37324V4.5573C20.3304 4.3923 20.1969 4.25879 20.0319 4.25879Z" fill="#001571"/>
<path d="M16.6871 5.37413C16.6043 5.23071 16.4215 5.18231 16.2793 5.26481C16.1364 5.3473 16.0875 5.52979 16.17 5.67263L16.5781 6.37925C16.6608 6.52246 16.8438 6.57063 16.9859 6.48857C17.1287 6.40608 17.1777 6.22359 17.0952 6.08075L16.6871 5.37413Z" fill="#001571"/>
<path d="M14.6477 8.31033L13.9411 7.90251C13.7985 7.81972 13.6157 7.86898 13.5332 8.01183C13.4507 8.15467 13.4997 8.33715 13.6426 8.41965L14.3492 8.82748C14.4904 8.90907 14.6736 8.86217 14.757 8.71816C14.8395 8.57532 14.7905 8.39283 14.6477 8.31033Z" fill="#001571"/>
<path d="M13.6418 11.4653H12.8259C12.6609 11.4653 12.5273 11.5988 12.5273 11.7638C12.5273 11.9288 12.6609 12.0623 12.8259 12.0623H13.6418C14.037 12.0623 14.0366 11.4653 13.6418 11.4653Z" fill="#001571"/>
<path d="M14.3492 14.7009L13.6426 15.109C13.4997 15.1915 13.4507 15.374 13.5332 15.5169C13.616 15.6601 13.799 15.7082 13.9411 15.6262L14.6477 15.2181C14.7905 15.1356 14.8395 14.9531 14.757 14.8102C14.6739 14.6671 14.4911 14.6181 14.3492 14.7009Z" fill="#001571"/>
<path d="M26.4221 15.109L25.7155 14.7009C25.5726 14.6181 25.3902 14.6671 25.3076 14.8102C25.2252 14.9531 25.2741 15.1356 25.417 15.2181L26.1236 15.6262C26.2659 15.7084 26.4488 15.6598 26.5314 15.5169C26.6139 15.374 26.5649 15.1915 26.4221 15.109Z" fill="#001571"/>
<path d="M27.2375 11.4653H26.4216C26.2566 11.4653 26.123 11.5988 26.123 11.7638C26.123 11.9288 26.2566 12.0623 26.4216 12.0623H27.2375C27.4025 12.0623 27.536 11.9288 27.536 11.7638C27.536 11.5988 27.4025 11.4653 27.2375 11.4653Z" fill="#001571"/>
<path d="M25.7155 8.82748L26.4221 8.41965C26.5649 8.33716 26.6139 8.15467 26.5314 8.01183C26.4486 7.86898 26.2653 7.81972 26.1236 7.90251L25.417 8.31033C25.2741 8.39283 25.2252 8.57532 25.3076 8.71816C25.391 8.86194 25.574 8.90917 25.7155 8.82748Z" fill="#001571"/>
<path d="M23.7837 5.26481C23.6409 5.18231 23.4581 5.2307 23.3759 5.37413L22.9678 6.08075C22.8853 6.22359 22.9343 6.40607 23.0771 6.48858C23.2195 6.57078 23.4024 6.52221 23.485 6.37926L23.8931 5.67264C23.9756 5.52979 23.9266 5.34731 23.7837 5.26481Z" fill="#001571"/>
<path d="M3.88481 31.8339C4.00666 31.7231 4.0157 31.5342 3.90463 31.4124C3.76908 31.2631 3.63964 31.1086 3.51634 30.9486C3.41547 30.818 3.22803 30.7932 3.09773 30.8943C2.96713 30.9949 2.94293 31.1823 3.04351 31.3129C3.17672 31.4858 3.31665 31.6531 3.46329 31.8141C3.57489 31.9367 3.76379 31.9444 3.88481 31.8339Z" fill="#001571"/>
<path d="M1.4979 27.7351C1.64191 28.642 1.94158 29.5101 2.38847 30.3156C2.46832 30.4595 2.65023 30.5118 2.79425 30.4316C2.93826 30.3517 2.99044 30.1701 2.91028 30.0258C2.4975 29.2816 2.22056 28.4794 2.08734 27.6413C2.06139 27.4786 1.91068 27.3672 1.74569 27.3935C1.58302 27.4191 1.47196 27.5722 1.4979 27.7351Z" fill="#001571"/>
<path d="M11.5955 25.6484C12.1433 25.6484 12.589 25.2007 12.589 24.6503C12.589 24.1023 12.1433 23.6562 11.5955 23.6562C11.0501 23.6562 10.6064 24.1023 10.6064 24.6503C10.6065 25.2007 11.0501 25.6484 11.5955 25.6484ZM11.5955 24.2533C11.8142 24.2533 11.992 24.4314 11.992 24.6503C11.992 24.8716 11.8142 25.0514 11.5955 25.0514C11.3792 25.0514 11.2035 24.8716 11.2035 24.6503C11.2035 24.4276 11.3757 24.2533 11.5955 24.2533Z" fill="#001571"/>
<path d="M7.90266 24.6503C7.90266 24.1023 7.45723 23.6562 6.90948 23.6562C6.36173 23.6562 5.91602 24.1023 5.91602 24.6503C5.91602 25.2007 6.36173 25.6484 6.90948 25.6484C7.45723 25.6484 7.90266 25.2007 7.90266 24.6503ZM6.90948 25.0514C6.69085 25.0514 6.51303 24.8716 6.51303 24.6503C6.51303 24.4314 6.69085 24.2533 6.90948 24.2533C7.12782 24.2533 7.30565 24.4314 7.30565 24.6503C7.30565 24.8716 7.12782 25.0514 6.90948 25.0514Z" fill="#001571"/>
<path d="M11.3796 27.8235C11.3819 27.7427 11.3516 27.6643 11.2953 27.6063C11.2391 27.5483 11.1618 27.5156 11.0811 27.5156H7.42142C7.34068 27.5156 7.26342 27.5483 7.20716 27.6063C7.1509 27.6643 7.12058 27.7427 7.1232 27.8235C7.15965 28.9898 8.09452 29.9034 9.25123 29.9034C10.4082 29.9034 11.3431 28.9898 11.3796 27.8235ZM7.75929 28.1126H10.7432C10.5849 28.8021 9.97914 29.3064 9.25125 29.3064C8.52363 29.3064 7.91787 28.8021 7.75929 28.1126Z" fill="#001571"/>
<path d="M38.2963 30.271C38.1573 30.1842 37.9727 30.2253 37.8847 30.3649C37.7882 30.5182 37.6868 30.6675 37.5795 30.813C37.4818 30.9456 37.5104 31.1325 37.6431 31.2304C37.7766 31.3282 37.963 31.2993 38.0605 31.1669C38.1759 31.0097 38.2861 30.8482 38.3902 30.6826C38.4779 30.543 38.436 30.3588 38.2963 30.271Z" fill="#001571"/>
<path d="M37.1792 32.5375H34.7791V31.0808C36.212 30.1137 37.1672 28.4838 37.215 26.6331C37.9672 26.4958 38.5463 25.8331 38.5463 25.0331C38.5463 24.4595 38.2449 23.9577 37.7953 23.6675C37.9813 22.6453 38.0849 21.5948 38.0849 20.5198C38.0849 10.8271 30.1966 2.94141 20.5006 2.94141C10.8047 2.94141 2.9164 10.8271 2.9164 20.5198C2.9164 21.5931 3.01974 22.642 3.20514 23.6626C2.75599 23.9528 2.4561 24.4569 2.4561 25.0324C2.4561 25.8307 3.03063 26.4939 3.78521 26.6328C3.83229 28.4863 4.78841 30.1151 6.22505 31.0789V32.5374H3.82183C2.31967 32.5374 1.09766 33.7673 1.09766 35.279V39.6266C1.09766 39.7916 1.23117 39.9251 1.39616 39.9251H17.1083C17.2733 39.9251 17.4068 39.7916 17.4068 39.6266V37.8256C18.412 38.0049 19.4447 38.1041 20.5006 38.1041C21.559 38.1041 22.5906 37.996 23.5971 37.814V39.6241C23.5971 39.7913 23.7284 39.9226 23.8956 39.9226H39.603C39.7702 39.9226 39.9015 39.7913 39.9015 39.6241V35.2779C39.9015 33.7674 38.6836 32.5375 37.1792 32.5375ZM36.6239 26.4898C36.6239 29.2003 34.4389 31.4032 31.7463 31.4032C29.0597 31.4032 26.8747 29.2003 26.8747 26.4898C26.8747 26.3251 26.8747 21.9975 26.8747 22.2212H31.018H35.2687C35.3723 22.8429 35.8712 23.4318 36.6239 23.5823C36.6239 24.0599 36.6239 26.4898 36.6239 26.4898ZM29.3404 32.5375V31.4331C30.0687 31.7913 30.8866 32.0003 31.7463 32.0003C32.6239 32.0003 33.4478 31.7913 34.1821 31.4211V32.5375H29.3404ZM32.9702 33.1346L32.5881 34.251H31.2508L30.8627 33.1346H32.9702ZM26.7015 21.6241C26.1463 20.9853 25.812 20.1793 25.7523 19.3256H32.6776C34.7374 19.3256 36.4329 20.9256 36.612 22.9614C36.1642 22.8301 35.8359 22.4122 35.8359 21.9226C35.8359 21.7555 35.7045 21.6241 35.5374 21.6241H26.7015ZM37.221 26.0182V24.042C37.6448 24.1734 37.9493 24.5674 37.9493 25.0331C37.9493 25.4988 37.6448 25.8928 37.221 26.0182ZM14.329 21.5838H14.3314V21.6211H5.46216C5.29717 21.6211 5.16366 21.7547 5.16366 21.9197C5.16366 22.4114 4.83636 22.8235 4.39071 22.9599C4.5673 20.9263 6.26444 19.3255 8.32567 19.3255H15.2505C15.1891 20.1612 14.865 20.9463 14.329 21.5838ZM3.05311 25.0324C3.05311 24.5676 3.3588 24.1736 3.7781 24.0443V26.0205C3.3588 25.8912 3.05311 25.4973 3.05311 25.0324ZM4.37512 26.4914C4.37512 26.0101 4.37511 23.5211 4.37512 23.5824C5.06512 23.458 5.61083 22.9105 5.73444 22.2182H14.1288V26.4914C14.1288 29.2007 11.941 31.4051 9.2521 31.4051C6.56291 31.4051 4.37512 29.2007 4.37512 26.4914ZM6.82206 31.422C7.55539 31.7899 8.37869 32.0022 9.2521 32.0022C10.1174 32.0022 10.9333 31.7935 11.6614 31.4321V32.5374C11.4959 32.5374 6.56426 32.5374 6.82206 32.5374L6.82206 31.422ZM6.57934 33.1344H7.39641L7.88367 34.5358L7.41823 38.6517L5.85074 34.6989L6.57934 33.1344ZM8.02834 33.1344H10.1383L9.75087 34.2494H8.41604L8.02834 33.1344ZM10.8091 39.3281L10.2711 34.5706L10.7703 33.1344H11.9231L12.6514 34.6986L10.8156 39.3281H10.8091ZM1.69467 35.279C1.69467 34.0964 2.64878 33.1344 3.82183 33.1344H5.92096L5.25548 34.5634C5.22078 34.6377 5.21816 34.7231 5.24848 34.7992L7.04434 39.3281H1.69467V35.279ZM7.94263 39.3281L8.44957 34.8464H9.70132L10.2083 39.3281H7.94263ZM16.8098 39.3281H11.4578L13.2537 34.7992C13.284 34.7231 13.2814 34.6377 13.2467 34.5634L12.5814 33.1344H14.6827C15.8557 33.1344 16.8098 34.0964 16.8098 35.279V39.3281ZM23.5971 35.2779V37.2087C22.5919 37.3967 21.5598 37.5071 20.5006 37.5071C19.4434 37.5071 18.4109 37.403 17.4068 37.2169V35.279C17.4068 33.7673 16.1848 32.5374 14.6827 32.5374H12.2584V31.0915C13.7061 30.1294 14.6714 28.495 14.7187 26.6329C15.4735 26.4942 16.0484 25.8309 16.0484 25.0324C16.0484 24.2364 15.4772 23.5741 14.7258 23.4326V22.0407C15.4551 21.2096 15.8586 20.1457 15.8586 19.027C15.8586 18.862 15.7251 18.7285 15.5601 18.7285H8.32567C5.81809 18.7285 3.7781 20.7839 3.7781 23.3105V23.4327C3.77533 23.4332 3.77238 23.433 3.76961 23.4335C3.60483 22.486 3.51341 21.5137 3.51341 20.5198C3.51341 11.1562 11.1338 3.53842 20.5006 3.53842C29.8675 3.53842 37.4879 11.1562 37.4879 20.5198C37.4879 21.5146 37.3957 22.4876 37.2304 23.4358C37.2271 23.4351 37.2242 23.4337 37.221 23.4331C37.2274 23.336 37.2452 23.2849 37.221 23.2241C37.1792 20.7346 35.1553 18.7286 32.6776 18.7286H25.4418C25.2747 18.7286 25.1433 18.86 25.1433 19.0271C25.1433 20.1435 25.5433 21.2122 26.2776 22.042V23.4331C25.5254 23.5764 24.9523 24.2391 24.9523 25.0331C24.9523 25.8331 25.5314 26.4958 26.2836 26.6331C26.3314 28.4958 27.2926 30.1316 28.7433 31.0928V32.5375H26.3194C24.815 32.5375 23.5971 33.7674 23.5971 35.2779ZM14.7261 26.0206V24.0442C15.1456 24.1733 15.4514 24.5674 15.4514 25.0324C15.4514 25.4974 15.1456 25.8915 14.7261 26.0206ZM26.2777 24.042V26.0182C25.8538 25.8928 25.5493 25.4988 25.5493 25.0331C25.5493 24.5674 25.8538 24.1734 26.2777 24.042ZM24.1941 39.3256V35.2779C24.1941 34.0958 25.1433 33.1346 26.3195 33.1346H28.4209L27.7523 34.5614C27.7224 34.639 27.7164 34.7226 27.7463 34.8003L29.5433 39.3256L24.1941 39.3256ZM30.1941 39.3256H30.1881L28.3493 34.6987L29.0777 33.1346H30.2299L30.7314 34.5734L30.1941 39.3256ZM30.7911 39.3256L31.2985 34.848H32.5523L33.0598 39.3256H30.7911ZM33.1194 34.5376L33.603 33.1346H34.421L35.1493 34.6987L33.5851 38.651L33.1194 34.5376ZM39.3045 39.3256H33.9553L35.7523 34.8003C35.7821 34.7226 35.7821 34.6391 35.7463 34.5614L35.0777 33.1346H37.1792C38.3553 33.1346 39.3045 34.0958 39.3045 35.2779V39.3256Z" fill="#001571"/>
<path d="M30.3947 24.6503C30.3947 24.1023 29.9507 23.6562 29.4053 23.6562C28.8575 23.6562 28.4121 24.1023 28.4121 24.6503C28.4121 25.2007 28.8575 25.6484 29.4053 25.6484C29.9507 25.6484 30.3947 25.2007 30.3947 24.6503ZM29.4053 25.0514C29.187 25.0514 29.0091 24.8716 29.0091 24.6503C29.0091 24.4314 29.187 24.2533 29.4053 24.2533C29.6254 24.2533 29.7977 24.4276 29.7977 24.6503C29.7977 24.8716 29.6216 25.0514 29.4053 25.0514Z" fill="#001571"/>
<path d="M34.0918 23.6562C33.5441 23.6562 33.0986 24.1023 33.0986 24.6503C33.0986 25.2007 33.5441 25.6484 34.0918 25.6484C34.6396 25.6484 35.0853 25.2007 35.0853 24.6503C35.0853 24.1023 34.6396 23.6562 34.0918 23.6562ZM34.0918 25.0514C33.8735 25.0514 33.6956 24.8716 33.6956 24.6503C33.6956 24.4314 33.8735 24.2533 34.0918 24.2533C34.3104 24.2533 34.4883 24.4314 34.4883 24.6503C34.4883 24.8716 34.3104 25.0514 34.0918 25.0514Z" fill="#001571"/>
<path d="M33.5781 27.5156H29.9185C29.8377 27.5156 29.7605 27.5483 29.7042 27.6063C29.648 27.6643 29.6177 27.7427 29.6203 27.8235C29.6567 28.9898 30.5916 29.9034 31.7486 29.9034C32.9056 29.9034 33.8402 28.9898 33.8766 27.8235C33.879 27.7427 33.8486 27.6643 33.7924 27.6063C33.7361 27.5483 33.6589 27.5156 33.5781 27.5156ZM31.7486 29.3064C31.0207 29.3064 30.4149 28.8021 30.2564 28.1126H33.2403C33.082 28.8021 32.4765 29.3064 31.7486 29.3064Z" fill="#001571"/>
</svg>
