<svg width="40" height="41" viewBox="0 0 40 41" fill="none" xmlns="http://www.w3.org/2000/svg">
<path d="M11.2273 31.3714L10.1018 31.4145L9.27734 28.7192H10.4196L11.2273 31.3714Z" fill="#001571"/>
<path d="M9.86719 16.9907V25.9501C14.1491 26.4158 18.4308 27.9058 22.7127 30.4277V12.5132C18.4308 15.0349 14.1491 16.5249 9.86719 16.9907Z" fill="#E6E8F1"/>
<path d="M9.87014 16.999V25.9297H4.03975C3.22976 25.9297 2.56641 25.2663 2.56641 24.4564V18.4653C2.56641 17.6554 3.22976 16.999 4.03975 16.999H9.87014Z" fill="#E6E8F1"/>
<path d="M8.83203 35.3945C7.99443 35.3945 7.26233 34.8293 7.05035 34.019L4.61719 25.9297H8.42442L10.6137 33.0868C10.919 34.2539 10.0384 35.3945 8.83203 35.3945Z" fill="#E6E8F1"/>
<path d="M2.56625 18.9473V23.9817L0.897461 23.1228V19.8061L2.56625 18.9473Z" fill="#001571"/>
<path d="M25.7076 21.4644C25.7076 23.1195 24.368 24.4635 22.7129 24.4635V18.4653C24.368 18.4653 25.7076 19.8093 25.7076 21.4644Z" fill="#001571"/>
<path d="M25.0605 26.2715H38.8271V35.0524H25.0605V26.2715Z" fill="#E6E8F1"/>
<path d="M38.8264 35.0523H25.0596L31.943 29.3887L38.8264 35.0523Z" fill="#E6E8F1"/>
<path d="M38.8264 26.2715H25.0596L31.943 31.9351L38.8264 26.2715Z" fill="#001571"/>
<path d="M38.8272 3.4128V11.126C38.8272 11.7741 38.3017 12.2995 37.6536 12.2995H30.2289L25.9846 15.507V12.2995H25.2517C24.6035 12.2995 24.0781 11.7741 24.0781 11.126V3.4128C24.0781 2.76467 24.6035 2.23926 25.2517 2.23926H37.6536C38.3017 2.23926 38.8272 2.76467 38.8272 3.4128Z" fill="#E6E8F1"/>
<path d="M26.1706 38.082C24.2746 38.7204 22.2935 39.044 20.2815 39.044C17.8684 39.044 15.506 38.5752 13.2607 37.6511C13.108 37.587 12.9337 37.6605 12.8713 37.8132C12.8083 37.966 12.8812 38.1403 13.0334 38.2027C15.3509 39.1571 17.7897 39.641 20.2815 39.641C22.3582 39.641 24.4035 39.3069 26.3607 38.6475C26.5169 38.5951 26.6009 38.426 26.5484 38.2697C26.4959 38.1135 26.3263 38.0295 26.1706 38.082Z" fill="#001571"/>
<path d="M2.43627 14.5448C2.59036 14.5989 2.76156 14.5197 2.81757 14.3629C4.49609 9.61533 8.098 5.70384 12.6986 3.63178C12.849 3.56415 12.9161 3.38749 12.8485 3.23707C12.7803 3.08607 12.6018 3.01902 12.4538 3.08723C7.70504 5.22576 3.98769 9.26319 2.25437 14.1635C2.19956 14.3192 2.28118 14.4894 2.43627 14.5448Z" fill="#001571"/>
<path d="M15.9122 2.52965C16.7658 2.32209 17.6426 2.17458 18.5189 2.09179C18.6833 2.07605 18.8034 1.9303 18.7883 1.76647C18.7725 1.60206 18.618 1.48778 18.4629 1.49711C17.5581 1.5834 16.6521 1.73499 15.7711 1.94896C15.6108 1.98802 15.5128 2.14952 15.5513 2.30985C15.588 2.46019 15.7381 2.56787 15.9122 2.52965Z" fill="#001571"/>
<path d="M38.6501 15.1951C38.604 15.0366 38.439 14.945 38.2798 14.9917C38.1218 15.0377 38.0303 15.2033 38.0764 15.3619C38.562 17.0322 38.8081 18.7685 38.8081 20.5228C38.8081 21.476 38.7264 22.466 38.5661 23.4647C38.503 23.8563 39.0926 23.9521 39.155 23.5592C39.3211 22.5296 39.4051 21.5081 39.4051 20.5228C39.4051 18.7119 39.1509 16.9197 38.6501 15.1951Z" fill="#001571"/>
<path d="M39.1259 26.2715C39.1259 26.1005 38.9683 25.973 38.8274 25.973H36.0806C36.6728 24.2629 37.0037 22.4318 37.0037 20.5229C37.0037 17.6549 36.2675 14.9596 34.9897 12.5985H37.6538C38.4653 12.5985 39.1259 11.9379 39.1259 11.1263V3.41354C39.1259 2.60197 38.4653 1.94141 37.6538 1.94141H25.2517C24.4402 1.94141 23.7796 2.60197 23.7796 3.41354V4.18007C22.6502 3.93767 21.4822 3.80067 20.2815 3.80067C12.379 3.80067 5.75161 9.31923 4.01791 16.7028C3.051 16.7147 2.26782 17.4998 2.26782 18.4654V18.7651L0.76071 19.5405C0.661015 19.5912 0.598633 19.6939 0.598633 19.8058V23.1226C0.598633 23.2345 0.661015 23.3372 0.76071 23.3879L2.26782 24.1633V24.4566C2.26782 25.4337 3.06248 26.2284 4.03962 26.2284H4.39571L6.76175 34.0951C7.00838 35.0361 7.85959 35.6932 8.83207 35.6932C9.67474 35.6932 10.4912 35.2076 10.8304 34.2875C13.522 36.1419 16.773 37.2399 20.2815 37.2399C23.055 37.2399 25.6667 36.5512 27.9715 35.3509H38.8274H38.8391C38.9978 35.3509 39.157 35.2229 39.1259 35.0118V26.2715ZM38.5289 34.4198L33.9612 30.6621L38.5289 26.9034V34.4198ZM31.9443 31.549L25.8931 26.57H37.9949L31.9443 31.549ZM25.359 26.9033L29.9273 30.6622L25.359 34.4206V26.9033ZM24.3766 3.41354C24.3766 2.9308 24.769 2.53842 25.2517 2.53842H37.6538C38.1365 2.53842 38.5289 2.9308 38.5289 3.41354V11.1263C38.5289 11.6091 38.1365 12.0015 37.6538 12.0015H30.229C30.1643 12.0015 30.1007 12.0224 30.0488 12.0621L26.2831 14.9072V12.3C26.2831 12.135 26.1496 12.0015 25.9846 12.0015H25.2517C24.769 12.0015 24.3766 11.6091 24.3766 11.1263L24.3766 3.41354ZM1.19565 22.9407V19.9877L2.26783 19.4362V23.4922L1.19565 22.9407ZM2.86484 24.4566C2.86484 24.3424 2.86484 18.1982 2.86484 18.4654C2.86484 17.8218 3.39189 17.2976 4.03963 17.2976H9.56901V25.6314C9.42221 25.6314 3.68223 25.6314 4.03963 25.6314C3.39189 25.6313 2.86484 25.1043 2.86484 24.4566ZM8.83208 35.0961C8.1307 35.0961 7.51678 34.6221 7.33604 33.9336L5.01911 26.2284H8.20358C8.22225 26.2894 9.91592 31.8264 9.8168 31.5024C9.81691 31.5028 9.81735 31.5029 9.81746 31.5033L10.3252 33.1628C10.5808 34.14 9.84348 35.0961 8.83208 35.0961ZM9.68161 29.0181H10.1993L10.8295 31.0884L10.3208 31.1077L9.68161 29.0181ZM20.2815 36.6429C16.8061 36.6429 13.5938 35.5251 10.9585 33.6471C10.9675 33.4328 10.9563 33.2162 10.8995 32.9996L10.5015 31.6986L11.2394 31.6703C11.3315 31.6668 11.4172 31.6202 11.4708 31.545C11.5245 31.4692 11.5402 31.3735 11.5134 31.2849L10.7059 28.6328C10.6674 28.5068 10.5514 28.4211 10.4202 28.4211H9.49901L8.82829 26.2284H9.77362C10.2065 26.3755 15.4047 26.4699 22.5611 30.685C22.7597 30.8017 23.0112 30.6595 23.0112 30.4279V24.747C24.6877 24.5953 26.0062 23.182 26.0062 21.4645C26.0062 19.747 24.6877 18.3337 23.0112 18.182V12.5134C23.0112 12.4061 22.9541 12.3075 22.8608 12.2539C22.7681 12.2009 22.6538 12.202 22.5611 12.2562C18.3412 14.7417 14.0595 16.2348 9.83547 16.6942C9.82785 16.695 9.82166 16.6992 9.81423 16.7006H4.63322C6.35518 9.65042 12.7106 4.39768 20.2815 4.39768C21.4836 4.39768 22.6521 4.53885 23.7796 4.79002V11.1263C23.7796 11.9379 24.4402 12.5985 25.2517 12.5985H25.6861V15.5072C25.6861 15.7524 25.9679 15.8943 26.1648 15.745L30.3293 12.5985H34.3103C35.6392 14.9413 36.4067 17.6424 36.4067 20.5229C36.4067 22.4359 36.0657 24.2692 35.451 25.973H25.0605C24.9201 25.973 24.762 26.0999 24.762 26.2715V35.0524C24.762 35.2235 24.9196 35.3509 25.0605 35.3509H26.5963C24.6555 36.1802 22.5221 36.6429 20.2815 36.6429ZM23.0112 18.7803C24.358 18.9295 25.4092 20.0763 25.4092 21.4645C25.4092 22.8527 24.358 23.9995 23.0112 24.1487V18.7803ZM22.4142 29.9096C18.3565 27.5884 14.2407 26.1682 10.1684 25.6842V17.2571C14.2395 16.7736 18.3553 15.3528 22.4142 13.0317V29.9096ZM25.8931 34.7539L30.3968 31.0485L31.7548 32.1659C31.8096 32.2113 31.8772 32.2341 31.9442 32.2341C32.0113 32.2341 32.0789 32.2113 32.1337 32.1659L33.4915 31.0486L37.9948 34.7539H25.8931Z" fill="#001571"/>
<path d="M27.9702 8.12933C28.5535 8.12933 29.0263 7.65649 29.0263 7.07321C29.0263 6.48993 28.5535 6.01709 27.9702 6.01709C27.3869 6.01709 26.9141 6.48993 26.9141 7.07321C26.9141 7.65649 27.3869 8.12933 27.9702 8.12933Z" fill="#001571"/>
<path d="M31.4526 8.12933C32.0359 8.12933 32.5087 7.65649 32.5087 7.07321C32.5087 6.48993 32.0359 6.01709 31.4526 6.01709C30.8693 6.01709 30.3965 6.48993 30.3965 7.07321C30.3965 7.65649 30.8693 8.12933 31.4526 8.12933Z" fill="#001571"/>
<path d="M34.935 8.12933C35.5183 8.12933 35.9911 7.65649 35.9911 7.07321C35.9911 6.48993 35.5183 6.01709 34.935 6.01709C34.3517 6.01709 33.8789 6.48993 33.8789 7.07321C33.8789 7.65649 34.3517 8.12933 34.935 8.12933Z" fill="#001571"/>
<path d="M38.3627 36.5371H34.4733C34.3083 36.5371 34.1748 36.6706 34.1748 36.8356C34.1748 37.0006 34.3083 37.1341 34.4733 37.1341H38.3627C38.5277 37.1341 38.6612 37.0006 38.6612 36.8356C38.6612 36.6706 38.5277 36.5371 38.3627 36.5371Z" fill="#001571"/>
<path d="M33.0104 36.5371H31.944C31.779 36.5371 31.6455 36.6706 31.6455 36.8356C31.6455 37.0006 31.779 37.1341 31.944 37.1341H33.0104C33.1754 37.1341 33.3089 37.0006 33.3089 36.8356C33.3089 36.6706 33.1754 36.5371 33.0104 36.5371Z" fill="#001571"/>
<path d="M4.41634 30.4217C4.36796 30.2637 4.20005 30.1751 4.04379 30.2229C3.88579 30.2713 3.79717 30.438 3.84498 30.5955L4.68978 33.3637C4.73875 33.5228 4.90695 33.61 5.06233 33.5625C5.22033 33.5141 5.30895 33.3473 5.26114 33.1899L4.41634 30.4217Z" fill="#001571"/>
<path d="M3.97921 28.9926L3.81771 28.4632C3.76932 28.3058 3.60141 28.2166 3.44516 28.2644C3.28716 28.3128 3.19854 28.4795 3.24635 28.6369L3.40785 29.1663C3.45768 29.3282 3.62747 29.4119 3.7804 29.3651C3.9384 29.3167 4.02702 29.15 3.97921 28.9926Z" fill="#001571"/>
</svg>
