<svg width="41" height="41" viewBox="0 0 41 41" fill="none" xmlns="http://www.w3.org/2000/svg">
<path d="M28.3675 14.3358V18.1855C28.3675 18.3653 28.2217 18.511 28.042 18.511H24.4735C24.2937 18.511 24.1479 18.3653 24.1479 18.1855V14.3358C24.1479 14.156 24.2937 14.0103 24.4735 14.0103H28.042C28.2217 14.0103 28.3675 14.156 28.3675 14.3358Z" fill="#E6E8F1"/>
<path d="M28.3675 14.9213V14.3358C28.3675 14.156 28.2217 14.0103 28.042 14.0103H24.4735C24.2937 14.0103 24.1479 14.156 24.1479 14.3358V14.9213H28.3675Z" fill="#001571"/>
<path d="M23.0846 17.9341H22.7156C22.4183 17.9341 22.1772 18.1751 22.1772 18.4724V19.2519C22.1772 19.6511 22.5009 19.9747 22.9001 19.9747C23.2993 19.9747 23.6229 19.6511 23.6229 19.2519V18.4724C23.6229 18.1751 23.3819 17.9341 23.0846 17.9341Z" fill="#E6E8F1"/>
<path d="M26.2581 17.7735C26.8879 17.7735 27.3985 17.2629 27.3985 16.6331C27.3985 16.0032 26.8879 15.4927 26.2581 15.4927C25.6282 15.4927 25.1177 16.0032 25.1177 16.6331C25.1177 17.2629 25.6282 17.7735 26.2581 17.7735Z" fill="#001571"/>
<path d="M22.1225 24.1169C21.4271 24.889 20.4347 25.3318 19.3998 25.3318H19.3975C19.3653 25.3318 19.3403 25.3579 19.3403 25.3901C19.3403 25.4224 19.3675 25.4484 19.3998 25.4484C20.4676 25.4484 21.4915 24.9916 22.209 24.195C22.2307 24.1711 22.2287 24.1342 22.2048 24.1127C22.1809 24.091 22.144 24.0931 22.1225 24.1169Z" fill="#001571"/>
<path d="M15.7333 21.6674C15.7333 20.6889 16.1161 19.7682 16.8113 19.0752C16.8341 19.0524 16.8342 19.0156 16.8114 18.9928C16.7887 18.9698 16.7518 18.97 16.729 18.9926C16.0117 19.7077 15.6167 20.6576 15.6167 21.6674C15.6167 21.9841 15.6563 22.2993 15.7344 22.6043C15.7424 22.6358 15.7746 22.6543 15.8053 22.6463C15.8365 22.6384 15.8553 22.6066 15.8473 22.5754C15.7717 22.2798 15.7333 21.9743 15.7333 21.6674Z" fill="#001571"/>
<path d="M17.2137 18.7282C17.3634 18.6167 17.5225 18.5162 17.6866 18.4292C17.715 18.4141 17.7258 18.3788 17.7108 18.3504C17.6956 18.3219 17.6602 18.311 17.6319 18.3262C17.4627 18.416 17.2986 18.5197 17.1441 18.6346C17.1183 18.6538 17.1129 18.6904 17.1321 18.7162C17.1513 18.7421 17.1879 18.7473 17.2137 18.7282Z" fill="#001571"/>
<path d="M22.4422 18.7526H21.802C21.1245 18.1929 20.2768 17.8862 19.4 17.8862C19.323 17.8862 19.246 17.8886 19.1703 17.8932C19.1376 17.8956 19.1131 17.9235 19.1154 17.955C19.1166 17.9877 19.1458 18.0145 19.1772 18.0098C19.2507 18.0052 19.3253 18.0028 19.4 18.0028C20.201 18.0028 20.9765 18.2664 21.6131 18.7526H20.9753C20.5061 18.4979 19.97 18.3514 19.3997 18.3514C17.5706 18.3514 16.0825 19.8387 16.0825 21.6671C16.0825 22.2635 16.2428 22.8224 16.5198 23.3063V24.0523C16.5198 24.4825 16.8696 24.8335 17.2999 24.8335C17.5168 24.8335 17.7139 24.7449 17.8561 24.6003C17.8564 24.6 17.8566 24.5997 17.8569 24.5995C18.3183 24.843 18.8426 24.9828 19.3997 24.9828C20.6051 24.9828 21.6603 24.3349 22.2405 23.3701H22.4422C22.6544 23.3701 22.8258 23.1976 22.8258 22.9853V19.7216V19.1362C22.8258 18.924 22.6544 18.7526 22.4422 18.7526ZM22.4422 18.8692C22.5903 18.8692 22.7092 18.9881 22.7092 19.1362V19.6633H18.6071V19.1362C18.6071 18.9881 18.7272 18.8692 18.8741 18.8692H22.4422ZM19.3997 18.468C19.8685 18.468 20.3136 18.5706 20.7152 18.7526H18.8741C18.6619 18.7526 18.4904 18.924 18.4904 19.1362V19.7216V21.1314H17.0618C16.869 21.1314 16.7122 21.2882 16.7122 21.4809C16.7122 21.6737 16.869 21.8305 17.0618 21.8305H17.6836C17.8121 21.8305 17.9166 21.935 17.9166 22.0666C17.9166 22.1951 17.8121 22.2996 17.6836 22.2996H17.5246C17.3688 22.2996 17.2421 22.4264 17.2421 22.582V22.6752H17.1157C16.8452 22.6752 16.6154 22.8571 16.5432 23.1054C16.5431 23.1055 16.5431 23.1056 16.5431 23.1057C16.3239 22.6728 16.1991 22.1845 16.1991 21.6671C16.1991 19.9031 17.6349 18.468 19.3997 18.468ZM17.2999 24.7169C16.9338 24.7169 16.6364 24.4184 16.6364 24.0523V23.2722C16.6364 23.0075 16.851 22.7918 17.1157 22.7918C17.1277 22.7918 17.499 22.7918 17.4853 22.7918C17.75 22.7918 17.9646 23.0075 17.9646 23.2722V24.0523C17.9646 24.4184 17.6672 24.7169 17.2999 24.7169ZM17.8882 24.5648C17.8884 24.5645 17.8886 24.5644 17.8888 24.5642C17.8911 24.563 17.8911 24.5618 17.8923 24.5607C17.8925 24.5604 17.8927 24.5602 17.8928 24.5599V24.5648H17.8882ZM19.3997 24.8662C18.8713 24.8662 18.3732 24.7363 17.9335 24.5087C18.0265 24.3805 18.0812 24.2234 18.0812 24.0523V23.2722C18.0812 22.9434 17.8141 22.6752 17.4853 22.6752H17.3587V22.582C17.3587 22.4906 17.4331 22.4162 17.5246 22.4162H17.6836C17.8764 22.4162 18.0332 22.2594 18.0332 22.0635C18.0332 21.8707 17.8764 21.7139 17.6836 21.7139H17.0618C16.9334 21.7139 16.8288 21.6093 16.8288 21.4809C16.8288 21.3524 16.9334 21.248 17.0618 21.248H18.4904V22.9853C18.4904 23.1976 18.6619 23.3701 18.8741 23.3701H22.1034C21.5364 24.2676 20.5376 24.8662 19.3997 24.8662ZM22.4422 23.2535H18.8741C18.7272 23.2535 18.6071 23.1334 18.6071 22.9853V19.7799H22.7092V22.9853C22.7092 23.1334 22.5903 23.2535 22.4422 23.2535Z" fill="#001571"/>
<path d="M19.1826 19.4101C19.2621 19.4101 19.3266 19.3456 19.3266 19.2661C19.3266 19.1865 19.2621 19.1221 19.1826 19.1221C19.103 19.1221 19.0386 19.1865 19.0386 19.2661C19.0386 19.3456 19.103 19.4101 19.1826 19.4101Z" fill="#001571"/>
<path d="M19.7656 19.4101C19.8451 19.4101 19.9096 19.3456 19.9096 19.2661C19.9096 19.1865 19.8451 19.1221 19.7656 19.1221C19.6861 19.1221 19.6216 19.1865 19.6216 19.2661C19.6216 19.3456 19.6861 19.4101 19.7656 19.4101Z" fill="#001571"/>
<path d="M21.3635 19.3241H22.2778C22.31 19.3241 22.3361 19.298 22.3361 19.2658C22.3361 19.2336 22.31 19.2075 22.2778 19.2075H21.3635C21.3313 19.2075 21.3052 19.2336 21.3052 19.2658C21.3052 19.298 21.3313 19.3241 21.3635 19.3241Z" fill="#001571"/>
<path d="M20.8195 19.3241H21.0615C21.0937 19.3241 21.1198 19.298 21.1198 19.2658C21.1198 19.2336 21.0937 19.2075 21.0615 19.2075H20.8195C20.7873 19.2075 20.7612 19.2336 20.7612 19.2658C20.7612 19.298 20.7873 19.3241 20.8195 19.3241Z" fill="#001571"/>
<path d="M17.2962 23.0469C17.2332 23.0469 17.1821 23.098 17.1821 23.161V23.4137C17.1821 23.4767 17.2332 23.5278 17.2962 23.5278C17.3593 23.5278 17.4104 23.4767 17.4104 23.4137V23.161C17.4104 23.098 17.3593 23.0469 17.2962 23.0469Z" fill="#001571"/>
<path d="M21.041 21.1154C21.0154 21.0954 20.9789 21.1002 20.9591 21.1255C20.9393 21.1509 20.9438 21.1876 20.9692 21.2074L21.3087 21.4718L20.9692 21.7362C20.9438 21.756 20.9393 21.7927 20.9591 21.8181C20.979 21.8434 21.0156 21.848 21.041 21.8282L21.4394 21.5178C21.4535 21.5067 21.4619 21.4898 21.4619 21.4718C21.4619 21.4538 21.4535 21.4368 21.4394 21.4258L21.041 21.1154Z" fill="#001571"/>
<path d="M20.3572 21.1255C20.3374 21.1002 20.3008 21.0954 20.2754 21.1154L19.8769 21.4258C19.8628 21.4368 19.8545 21.4538 19.8545 21.4718C19.8545 21.4898 19.8628 21.5067 19.8769 21.5178L20.2754 21.8282C20.3008 21.848 20.3374 21.8434 20.3572 21.8181C20.377 21.7927 20.3725 21.756 20.3471 21.7362L20.0076 21.4718L20.3471 21.2074C20.3725 21.1876 20.377 21.1509 20.3572 21.1255Z" fill="#001571"/>
<path d="M20.793 20.8875C20.7608 20.8797 20.73 20.899 20.7224 20.93L20.4812 21.9083C20.4735 21.9396 20.4926 21.9712 20.5238 21.9789C20.5563 21.9866 20.587 21.9666 20.5944 21.9363L20.8356 20.9581C20.8433 20.9267 20.8242 20.8952 20.793 20.8875Z" fill="#001571"/>
<path d="M23.1379 21.0024C23.1057 21.0024 23.0796 21.0285 23.0796 21.0607V22.0343C23.0796 22.0666 23.1057 22.0926 23.1379 22.0926C23.1701 22.0926 23.1962 22.0666 23.1962 22.0343V21.0607C23.1962 21.0285 23.1701 21.0024 23.1379 21.0024Z" fill="#001571"/>
<path d="M23.1379 20.3076C23.1057 20.3076 23.0796 20.3337 23.0796 20.3659V20.6533C23.0796 20.6856 23.1057 20.7116 23.1379 20.7116C23.1701 20.7116 23.1962 20.6856 23.1962 20.6533V20.3659C23.1962 20.3337 23.1701 20.3076 23.1379 20.3076Z" fill="#001571"/>
<path d="M20.1447 23.8129H20.4285C20.4607 23.8129 20.4868 23.7868 20.4868 23.7546C20.4868 23.7224 20.4607 23.6963 20.4285 23.6963H20.1447C20.1125 23.6963 20.0864 23.7224 20.0864 23.7546C20.0864 23.7868 20.1125 23.8129 20.1447 23.8129Z" fill="#001571"/>
<path d="M19.0168 23.8129H19.861C19.8932 23.8129 19.9193 23.7868 19.9193 23.7546C19.9193 23.7224 19.8932 23.6963 19.861 23.6963H19.0168C18.9846 23.6963 18.9585 23.7224 18.9585 23.7546C18.9585 23.7868 18.9846 23.8129 19.0168 23.8129Z" fill="#001571"/>
<path d="M38.5373 31.3213V33.3988H6.49441C5.88832 33.3988 5.39697 32.9075 5.39697 32.3014V31.3213H38.5373Z" fill="#E6E8F1"/>
<path d="M27.7014 17.2281V31.3215H5.39697V17.2281C5.39697 16.1421 6.27733 15.2617 7.36337 15.2617H25.7351C26.821 15.2617 27.7014 16.1421 27.7014 17.2281Z" fill="#E6E8F1"/>
<path d="M37.8509 26.5748V31.3211H27.7017V20.5986H33.1833L35.1166 24.2106L37.8509 26.5748Z" fill="#E6E8F1"/>
<path d="M33.1799 25.6569H30.0874V22.9883H31.7531L33.1799 25.6569Z" fill="#001571"/>
<path d="M35.6954 32.778C35.6954 34.5452 34.2626 35.978 32.4954 35.978C30.7282 35.978 29.2954 34.5452 29.2954 32.778C29.2954 31.0108 30.7282 29.584 32.4954 29.584C34.2626 29.584 35.6954 31.0108 35.6954 32.778Z" fill="#001571"/>
<path d="M16.5494 32.7785C16.5494 34.5457 15.1166 35.9785 13.3494 35.9785C11.5823 35.9785 10.1494 34.5457 10.1494 32.7785C10.1494 31.0113 11.5823 29.5845 13.3494 29.5845C15.1166 29.5845 16.5494 31.0113 16.5494 32.7785Z" fill="#001571"/>
<path d="M33.6954 32.7781C33.6954 33.4468 33.1581 33.9841 32.4954 33.9841C31.8327 33.9841 31.2954 33.4468 31.2954 32.7781C31.2954 32.1154 31.8327 31.5781 32.4954 31.5781C33.1581 31.5781 33.6954 32.1154 33.6954 32.7781Z" fill="#E6E8F1"/>
<path d="M14.5494 32.7781C14.5494 33.4468 14.0121 33.9841 13.3494 33.9841C12.6867 33.9841 12.1494 33.4468 12.1494 32.7781C12.1494 32.1154 12.6867 31.5781 13.3494 31.5781C14.0121 31.5781 14.5494 32.1154 14.5494 32.7781Z" fill="#E6E8F1"/>
<path d="M38.0393 14.9031C38.0887 15.0584 38.2559 15.1462 38.4147 15.0957C38.5716 15.0453 38.6578 14.8771 38.6072 14.72C37.6854 11.8547 36.0937 9.22324 34.0054 7.1095C33.8899 6.99291 33.701 6.99088 33.5832 7.10718C33.4661 7.22288 33.4649 7.41177 33.5809 7.52927C35.604 9.57655 37.1455 12.1264 38.0393 14.9031Z" fill="#001571"/>
<path d="M39.2475 17.3173C39.2195 17.1541 39.0598 17.0462 38.9023 17.0742C38.7403 17.1025 38.6312 17.2571 38.6598 17.4194C38.7712 18.0616 38.8493 18.7137 38.8918 19.3576C38.9023 19.5154 39.0335 19.6363 39.1892 19.6363C39.1962 19.6363 39.2026 19.636 39.2096 19.6357C39.374 19.6247 39.4988 19.4827 39.4877 19.318C39.4434 18.6533 39.3629 17.98 39.2475 17.3173Z" fill="#001571"/>
<path d="M26.5278 38.303C23.5981 39.3576 20.4282 39.6425 17.3574 39.1242C17.1983 39.1008 17.0409 39.2064 17.0135 39.3691C16.9861 39.5314 17.0957 39.6856 17.2583 39.713C18.2885 39.8865 19.3292 39.9728 20.3694 39.9728C22.5306 39.9728 24.6872 39.6002 26.7295 38.8644C26.8852 38.8088 26.9657 38.6376 26.9097 38.4825C26.8537 38.3271 26.6817 38.2458 26.5278 38.303Z" fill="#001571"/>
<path d="M11.7494 3.91727C11.8964 3.84235 11.9552 3.66276 11.88 3.51584C11.8054 3.36808 11.6247 3.31178 11.4789 3.38497C6.61881 5.85787 2.9895 10.2343 1.5209 15.392C1.47541 15.5503 1.56753 15.7156 1.7261 15.7608C1.8806 15.8052 2.04866 15.7171 2.09457 15.5553C3.51834 10.5567 7.03744 6.31494 11.7494 3.91727Z" fill="#001571"/>
<path d="M15.4305 2.51012C15.967 2.36815 16.5156 2.24953 17.0624 2.15741C17.2251 2.13 17.3347 1.9758 17.3073 1.81341C17.2799 1.65048 17.1237 1.54583 16.9633 1.56851C16.3984 1.66385 15.8317 1.7863 15.2778 1.93293C15.1187 1.9752 15.0236 2.13842 15.0656 2.29788C15.1076 2.45609 15.2695 2.55221 15.4305 2.51012Z" fill="#001571"/>
<path d="M38.5371 31.0224H38.149V26.5746C38.149 26.491 38.1132 26.4074 38.0475 26.3477L36.6147 25.1119C36.9968 23.703 37.1998 22.2224 37.1998 20.694C37.1998 11.3149 29.5639 3.68506 20.1848 3.68506C10.7998 3.68506 3.16992 11.3149 3.16992 20.694C3.16992 23.4582 3.84455 26.1507 5.09828 28.5507V31.3209V32.3C5.09828 33.0701 5.72515 33.697 6.49529 33.697H9.97589C10.1968 34.5149 10.7102 35.2134 11.3968 35.6791C11.3968 35.6791 11.3973 35.6793 11.3974 35.6795H8.25445C8.08944 35.6795 7.95595 35.813 7.95595 35.978C7.95595 36.143 8.08944 36.2765 8.25445 36.2765H13.3616C13.3853 36.2943 13.409 36.312 13.4386 36.3239C15.5699 37.2433 17.8386 37.7149 20.1848 37.7149C22.6143 37.7149 24.9244 37.2016 27.0196 36.2765H37.8498C38.0148 36.2765 38.1483 36.143 38.1483 35.978C38.1483 35.813 38.0148 35.6795 37.8498 35.6795H34.4468C35.1336 35.2137 35.6475 34.5149 35.8684 33.697H38.5371C38.7042 33.697 38.8356 33.5657 38.8356 33.3985V31.3209C38.8356 31.1537 38.7042 31.0224 38.5371 31.0224ZM37.552 26.7119V31.0224H35.5102C34.9442 30.0116 33.7868 29.2851 32.4953 29.2851C31.2057 29.2851 30.0834 29.9836 29.4804 31.0224H27.9998V20.897H33.0028L34.8535 24.3537C34.8714 24.3836 34.8953 24.4134 34.9192 24.4373L35.9341 25.3149L36.4356 25.7507L37.552 26.7119ZM29.0147 33.1H16.8296C16.8804 32.6424 16.8254 32.1209 16.6445 31.6194H29.1998C29.0684 31.9836 28.9968 32.3716 28.9968 32.7776C28.9968 32.8851 29.0028 32.9925 29.0147 33.1ZM3.76694 20.694C3.76694 11.6433 11.1341 4.28207 20.1848 4.28207C29.2356 4.28207 36.6028 11.6433 36.6028 20.694C36.6028 22.0671 36.4356 23.3985 36.1132 24.6761L35.355 24.0194L33.4445 20.4612C33.3908 20.3597 33.2953 20.3 33.1819 20.3H27.9998V17.2254C27.9998 15.9776 26.9848 14.9627 25.7371 14.9627H7.36097C6.11321 14.9627 5.09828 15.9776 5.09828 17.2254V27.1597C4.23261 25.1358 3.76694 22.9388 3.76694 20.694ZM5.69529 17.2254C5.69529 16.306 6.44156 15.5597 7.36097 15.5597H25.7371C26.6565 15.5597 27.4028 16.306 27.4028 17.2254V31.0224H16.364C15.761 29.9836 14.6386 29.2851 13.349 29.2851C12.0595 29.2851 10.9371 29.9836 10.3341 31.0224C10.2277 31.0224 5.56956 31.0224 5.69529 31.0224C5.69529 25.8647 5.69529 22.2234 5.69529 17.2254ZM6.49529 33.1C6.0535 33.1 5.69529 32.7418 5.69529 32.3V31.6194C5.83027 31.6194 10.3191 31.6194 10.0535 31.6194C9.8735 32.1185 9.81732 32.6406 9.86843 33.1C9.7941 33.1 6.40723 33.1 6.49529 33.1ZM10.4714 33.1C10.2201 31.5935 11.5035 29.8821 13.349 29.8821C15.1737 29.8821 16.4795 31.5811 16.2266 33.1C16.1068 34.4565 14.9026 35.6791 13.349 35.6791C11.8043 35.6791 10.5916 34.4633 10.4714 33.1ZM15.3013 35.6791C15.9878 35.2134 16.5013 34.5149 16.7222 33.697H29.1222C29.1759 33.9119 29.2595 34.1149 29.355 34.3119C28.146 35.1303 27.2844 35.4845 26.8943 35.6795H15.3006C15.3008 35.6793 15.3011 35.6792 15.3013 35.6791ZM20.1848 37.1179C18.4062 37.1179 16.6635 36.8374 15.0041 36.2765H25.3656C23.7361 36.8255 21.9933 37.1179 20.1848 37.1179ZM28.2378 35.6795C28.4406 35.5636 28.9002 35.3322 29.6595 34.8194C29.8983 35.1537 30.1968 35.4463 30.5431 35.6791C30.5431 35.6791 30.5435 35.6793 30.5438 35.6795H28.2378ZM32.4953 35.6791C30.8885 35.6791 29.5938 34.3666 29.5938 32.7776C29.5938 31.1464 30.9309 29.8821 32.4953 29.8821C34.1836 29.8821 35.5744 31.3417 35.3789 33.1C35.2088 34.546 33.9922 35.6791 32.4953 35.6791ZM38.2386 33.1H35.9759C36.027 32.6397 35.9706 32.118 35.7908 31.6194H37.8505H38.2386V33.1Z" fill="#001571"/>
<path d="M32.0179 22.8497C31.9642 22.7482 31.8627 22.6885 31.7552 22.6885H30.0895C29.9224 22.6885 29.791 22.8258 29.791 22.987V25.6556C29.791 25.8228 29.9224 25.9541 30.0895 25.9541H33.1821H33.194C33.3552 25.9541 33.4925 25.8228 33.4925 25.6556C33.4925 25.578 33.4567 25.5064 33.4089 25.4527L32.0179 22.8497ZM30.388 25.3571V23.2855H31.5761L32.6806 25.3571H30.388Z" fill="#001571"/>
<path d="M32.4956 31.2793C31.6769 31.2793 30.9971 31.9537 30.9971 32.7778C30.9971 33.602 31.6695 34.2823 32.4956 34.2823C33.3319 34.2823 33.9941 33.5908 33.9941 32.7778C33.9941 31.949 33.3111 31.2793 32.4956 31.2793ZM32.4956 33.6853C31.9729 33.6853 31.5941 33.2321 31.5941 32.7778C31.5941 32.271 32.0166 31.8763 32.4956 31.8763C32.9668 31.8763 33.3971 32.2613 33.3971 32.7778C33.3971 33.2718 32.9919 33.6853 32.4956 33.6853Z" fill="#001571"/>
<path d="M14.8115 33.1002C15.0217 32.1539 14.2834 31.2793 13.3488 31.2793C12.3973 31.2793 11.6782 32.1643 11.8861 33.1002C12.0267 33.7504 12.6048 34.2823 13.3488 34.2823C14.0703 34.2823 14.6677 33.7651 14.8115 33.1002ZM13.3488 31.8763C13.9324 31.8763 14.4201 32.4498 14.1906 33.1002C14.0592 33.4405 13.7309 33.6853 13.3488 33.6853C12.9667 33.6853 12.6384 33.4405 12.507 33.1002C12.2783 32.4522 12.7629 31.8763 13.3488 31.8763Z" fill="#001571"/>
<path d="M5.58349 35.6802H2.86247C2.69752 35.6802 2.56396 35.8137 2.56396 35.9787C2.56396 36.1436 2.69752 36.2772 2.86247 36.2772H5.58349C5.74844 36.2772 5.882 36.1436 5.882 35.9787C5.882 35.8137 5.74844 35.6802 5.58349 35.6802Z" fill="#001571"/>
<path d="M14.1977 27.3393H14.2037C14.9022 27.3393 15.4693 26.7722 15.4693 26.0796V19.3692C15.4693 18.6707 14.9022 18.1035 14.1977 18.1035C13.5052 18.1035 12.938 18.6707 12.938 19.3692V26.0796C12.938 26.7722 13.5052 27.3393 14.1977 27.3393ZM13.535 19.3692C13.535 18.999 13.8335 18.7005 14.2037 18.7005C14.5738 18.7005 14.8723 18.999 14.8723 19.3692V26.0796C14.8723 26.4438 14.5738 26.7423 14.2037 26.7423H14.1977C13.8335 26.7423 13.535 26.4438 13.535 26.0796V19.3692Z" fill="#001571"/>
<path d="M23.5942 27.3393C24.2927 27.3393 24.8598 26.7722 24.8598 26.0796V19.3692C24.8598 18.6707 24.2927 18.1035 23.5942 18.1035C22.9016 18.1035 22.3345 18.6707 22.3345 19.3692V26.0796C22.3345 26.7722 22.9016 27.3393 23.5942 27.3393ZM22.9315 19.3692C22.9315 18.999 23.23 18.7005 23.5942 18.7005C23.9643 18.7005 24.2628 18.999 24.2628 19.3692V26.0796C24.2628 26.4438 23.9643 26.7423 23.5942 26.7423C23.23 26.7423 22.9315 26.4438 22.9315 26.0796V19.3692Z" fill="#001571"/>
<path d="M18.8959 27.3393H18.9019C19.6004 27.3393 20.1676 26.7722 20.1676 26.0796V19.3692C20.1676 18.6707 19.6004 18.1035 18.8959 18.1035C18.2034 18.1035 17.6362 18.6707 17.6362 19.3692V26.0796C17.6362 26.7722 18.2034 27.3393 18.8959 27.3393ZM18.2332 19.3692C18.2332 18.999 18.5318 18.7005 18.9019 18.7005C19.2721 18.7005 19.5706 18.999 19.5706 19.3692V26.0796C19.5706 26.4438 19.2721 26.7423 18.9019 26.7423H18.8959C18.5318 26.7423 18.2332 26.4438 18.2332 26.0796V19.3692Z" fill="#001571"/>
<path d="M9.49896 27.3393H9.50493C10.2034 27.3393 10.7706 26.7722 10.7706 26.0796V19.3692C10.7706 18.6707 10.2034 18.1035 9.49896 18.1035C8.80642 18.1035 8.23926 18.6707 8.23926 19.3692V26.0796C8.23926 26.7722 8.80642 27.3393 9.49896 27.3393ZM8.83627 19.3692C8.83627 18.999 9.13478 18.7005 9.50493 18.7005C9.87508 18.7005 10.1736 18.999 10.1736 19.3692V26.0796C10.1736 26.4438 9.87508 26.7423 9.50493 26.7423H9.49896C9.13478 26.7423 8.83627 26.4438 8.83627 26.0796V19.3692Z" fill="#001571"/>
</svg>
