<svg width="40" height="41" viewBox="0 0 40 41" fill="none" xmlns="http://www.w3.org/2000/svg">
<path d="M37.2095 7.60903V27.3196C37.2095 28.24 36.4633 28.9862 35.5428 28.9862H17.2721C16.3517 28.9862 15.6055 28.24 15.6055 27.3196V7.60903C15.6055 6.68857 16.3516 5.94238 17.2721 5.94238H35.5428C36.4633 5.94238 37.2095 6.68857 37.2095 7.60903Z" fill="#E6E8F1"/>
<path d="M37.2095 10.6068V7.60903C37.2095 6.68857 36.4633 5.94238 35.5428 5.94238H17.2721C16.3517 5.94238 15.6055 6.68856 15.6055 7.60903V10.6068H37.2095Z" fill="#001571"/>
<path d="M10.161 26.0308H8.27127C6.74911 26.0308 5.51514 27.2647 5.51514 28.7869V32.7779C5.51514 34.8219 7.17212 36.4789 9.21613 36.4789C11.2601 36.4789 12.9171 34.8219 12.9171 32.7779V28.7869C12.9171 27.2647 11.6831 26.0308 10.161 26.0308Z" fill="#E6E8F1"/>
<path d="M26.4081 25.2089C29.6328 25.2089 32.2469 22.5947 32.2469 19.3701C32.2469 16.1454 29.6328 13.5312 26.4081 13.5312C23.1835 13.5312 20.5693 16.1454 20.5693 19.3701C20.5693 22.5947 23.1835 25.2089 26.4081 25.2089Z" fill="#001571"/>
<path d="M33.9044 33.1099C30.3438 37.0628 25.2628 39.3302 19.964 39.3302H19.9523C19.7873 39.3302 19.6597 39.4637 19.6597 39.6287C19.6597 39.7937 19.799 39.9272 19.964 39.9272C25.4313 39.9272 30.6738 37.5881 34.3475 33.5098C34.4582 33.3874 34.4483 33.1985 34.3259 33.0883C34.2035 32.977 34.0146 32.988 33.9044 33.1099Z" fill="#001571"/>
<path d="M1.19418 20.5687C1.19418 15.5588 3.1543 10.845 6.71365 7.29676C6.83026 7.18016 6.83055 6.99126 6.71424 6.87466C6.59793 6.75688 6.40903 6.75805 6.29213 6.87349C2.61967 10.5349 0.597168 15.3984 0.597168 20.5687C0.597168 22.1901 0.799771 23.8039 1.19972 25.3658C1.24089 25.527 1.40568 25.6216 1.56295 25.5809C1.7227 25.5401 1.81889 25.3775 1.77808 25.2177C1.39066 23.7042 1.19418 22.1399 1.19418 20.5687Z" fill="#001571"/>
<path d="M8.77303 5.51966C9.53971 4.94887 10.3542 4.43407 11.194 3.98864C11.3395 3.91168 11.3952 3.73095 11.3179 3.58519C11.2404 3.43943 11.0591 3.38346 10.9142 3.46159C10.0478 3.92101 9.20768 4.45215 8.41681 5.04041C8.28446 5.13895 8.25706 5.3261 8.3553 5.45844C8.45374 5.59068 8.64119 5.61764 8.77303 5.51966Z" fill="#001571"/>
<path d="M35.5414 5.64578H32.2638C28.7952 2.78011 24.4548 1.20996 19.9653 1.20996C19.5713 1.20996 19.1772 1.22191 18.7892 1.24578C18.622 1.25773 18.4966 1.40101 18.5086 1.56222C18.5145 1.72936 18.6638 1.8667 18.825 1.8428C19.2011 1.81893 19.5832 1.80698 19.9653 1.80698C24.0668 1.80698 28.0369 3.15624 31.2966 5.64578H28.0309C25.6288 4.34148 22.8839 3.59139 19.9637 3.59139C10.5989 3.59139 2.97998 11.2068 2.97998 20.5678C2.97998 23.6216 3.80044 26.483 5.21901 28.9609V32.7801C5.21901 34.9831 7.01005 36.7801 9.21304 36.7801C10.3235 36.7801 11.3325 36.3264 12.0608 35.5861C12.0622 35.5847 12.0634 35.5831 12.0648 35.5817C14.427 36.8288 17.1116 37.5443 19.9637 37.5443C26.1357 37.5443 31.5383 34.227 34.5089 29.2876H35.5414C36.628 29.2876 37.5056 28.404 37.5056 27.3174V10.607V7.60998C37.5056 6.52341 36.628 5.64578 35.5414 5.64578ZM35.5414 6.24279C36.2996 6.24279 36.9086 6.85176 36.9086 7.60998V10.3085H15.9056V7.60998C15.9056 6.85176 16.5205 6.24279 17.2727 6.24279H35.5414ZM19.9637 4.1884C22.3645 4.1884 24.6429 4.71374 26.6992 5.64578H17.2727C16.1862 5.64578 15.3086 6.52341 15.3086 7.60998V10.607V17.8253H7.99397C7.00691 17.8253 6.20409 18.6281 6.20409 19.6146C6.20409 20.6017 7.00691 21.4045 7.99397 21.4045H11.1776C11.8352 21.4045 12.3704 21.9397 12.3704 22.6137C12.3704 23.2713 11.8352 23.8065 11.1776 23.8065H10.3634C9.5658 23.8065 8.91719 24.4554 8.91719 25.2524V25.7294H8.26978C6.8847 25.7294 5.70856 26.6607 5.33842 27.9324C5.33831 27.9327 5.33831 27.9331 5.3382 27.9334C4.21581 25.7173 3.577 23.217 3.577 20.5678C3.57699 11.5362 10.928 4.1884 19.9637 4.1884ZM9.21303 36.1831C7.33843 36.1831 5.81602 34.6548 5.81602 32.7801V28.7861C5.81602 27.4309 6.91454 26.3264 8.26978 26.3264C8.33109 26.3264 10.2322 26.3264 10.1623 26.3264C11.5175 26.3264 12.616 27.4309 12.616 28.7861V32.7801C12.616 34.6548 11.0936 36.1831 9.21303 36.1831ZM12.2253 35.404C12.2262 35.403 12.2271 35.4021 12.228 35.401C12.2399 35.395 12.2399 35.3891 12.2459 35.3831C12.2469 35.3819 12.2478 35.3805 12.2489 35.3793V35.404H12.2253ZM19.9637 36.9473C17.2585 36.9473 14.708 36.2823 12.4569 35.117C12.9331 34.4609 13.213 33.6563 13.213 32.7801V28.7861C13.213 27.1025 11.8459 25.7294 10.1623 25.7294H9.5142V25.2524C9.5142 24.7843 9.89521 24.4035 10.3634 24.4035H11.1776C12.1646 24.4035 12.9674 23.6007 12.9674 22.5973C12.9674 21.6103 12.1646 20.8075 11.1776 20.8075H7.99397C7.33632 20.8075 6.8011 20.2722 6.8011 19.6146C6.8011 18.9569 7.33632 18.4223 7.99397 18.4223H15.3086V27.3174C15.3086 28.404 16.1862 29.2876 17.2727 29.2876H33.8069C30.9041 33.8828 25.7899 36.9473 19.9637 36.9473ZM35.5414 28.6906H17.2727C16.5205 28.6906 15.9056 28.0756 15.9056 27.3174V10.9055H36.9086V27.3174C36.9086 28.0756 36.2996 28.6906 35.5414 28.6906Z" fill="#001571"/>
<path d="M18.8545 9.01174C19.2617 9.01174 19.5918 8.68163 19.5918 8.27442C19.5918 7.86722 19.2617 7.53711 18.8545 7.53711C18.4473 7.53711 18.1172 7.86722 18.1172 8.27442C18.1172 8.68163 18.4473 9.01174 18.8545 9.01174Z" fill="#E6E8F1"/>
<path d="M21.8389 9.01174C22.2461 9.01174 22.5762 8.68163 22.5762 8.27442C22.5762 7.86722 22.2461 7.53711 21.8389 7.53711C21.4317 7.53711 21.1016 7.86722 21.1016 8.27442C21.1016 8.68163 21.4317 9.01174 21.8389 9.01174Z" fill="#E6E8F1"/>
<path d="M30.0182 8.5726H34.6993C34.8643 8.5726 34.9978 8.43909 34.9978 8.27409C34.9978 8.1091 34.8643 7.97559 34.6993 7.97559H30.0182C29.8532 7.97559 29.7197 8.1091 29.7197 8.27409C29.7197 8.43909 29.8532 8.5726 30.0182 8.5726Z" fill="#001571"/>
<path d="M27.2355 8.5726H28.4744C28.6394 8.5726 28.773 8.43909 28.773 8.27409C28.773 8.1091 28.6394 7.97559 28.4744 7.97559H27.2355C27.0705 7.97559 26.937 8.1091 26.937 8.27409C26.937 8.43909 27.0705 8.5726 27.2355 8.5726Z" fill="#001571"/>
<path d="M9.19608 27.6318C8.87341 27.6318 8.61182 27.8934 8.61182 28.2161V29.5101C8.61182 29.8328 8.87341 30.0943 9.19608 30.0943C9.51875 30.0943 9.78034 29.8328 9.78034 29.5101V28.2161C9.78034 27.8934 9.51875 27.6318 9.19608 27.6318Z" fill="#001571"/>
<path d="M28.37 17.7429C28.2388 17.6409 28.0523 17.6654 27.9508 17.7948C27.8494 17.9248 27.8727 18.1125 28.0027 18.214L29.7407 19.5678L28.0027 20.9215C27.8727 21.023 27.8494 21.2107 27.9508 21.3407C28.0525 21.4706 28.2398 21.4937 28.37 21.3926L30.41 19.8033C30.4823 19.7467 30.5249 19.6599 30.5249 19.5678C30.5249 19.4756 30.4823 19.3888 30.41 19.3322L28.37 17.7429Z" fill="#E6E8F1"/>
<path d="M24.866 17.7948C24.7646 17.6653 24.5769 17.6409 24.4468 17.7429L22.4068 19.3322C22.3346 19.3888 22.292 19.4756 22.292 19.5678C22.292 19.6599 22.3346 19.7467 22.4068 19.8033L24.4468 21.3926C24.5771 21.4938 24.7644 21.4705 24.866 21.3407C24.9675 21.2107 24.9442 21.023 24.8141 20.9215L23.0762 19.5678L24.8141 18.214C24.9442 18.1125 24.9675 17.9248 24.866 17.7948Z" fill="#E6E8F1"/>
<path d="M27.0968 16.5757C26.9318 16.536 26.7744 16.6346 26.7353 16.7937L25.5005 21.8025C25.4609 21.9628 25.5588 22.1243 25.7186 22.1639C25.8849 22.2035 26.0421 22.101 26.08 21.9459L27.3149 16.9371C27.3545 16.7768 27.2566 16.6153 27.0968 16.5757Z" fill="#E6E8F1"/>
<path d="M39.1042 17.1655C38.9392 17.1655 38.8057 17.299 38.8057 17.464V22.4489C38.8057 22.6139 38.9392 22.7474 39.1042 22.7474C39.2692 22.7474 39.4027 22.6139 39.4027 22.4489V17.464C39.4027 17.299 39.2692 17.1655 39.1042 17.1655Z" fill="#001571"/>
<path d="M39.1042 13.6084C38.9392 13.6084 38.8057 13.7419 38.8057 13.9069V15.3785C38.8057 15.5434 38.9392 15.677 39.1042 15.677C39.2692 15.677 39.4027 15.5434 39.4027 15.3785V13.9069C39.4027 13.7419 39.2692 13.6084 39.1042 13.6084Z" fill="#001571"/>
<path d="M23.78 31.5531H25.2328C25.3978 31.5531 25.5313 31.4196 25.5313 31.2546C25.5313 31.0896 25.3978 30.9561 25.2328 30.9561H23.78C23.615 30.9561 23.4814 31.0896 23.4814 31.2546C23.4814 31.4196 23.615 31.5531 23.78 31.5531Z" fill="#001571"/>
<path d="M18.0046 31.5531H22.3268C22.4918 31.5531 22.6253 31.4196 22.6253 31.2546C22.6253 31.0896 22.4918 30.9561 22.3268 30.9561H18.0046C17.8396 30.9561 17.7061 31.0896 17.7061 31.2546C17.7061 31.4196 17.8396 31.5531 18.0046 31.5531Z" fill="#001571"/>
</svg>
